<mxfile host="65bd71144e">
    <diagram id="nKQMyj5D2cVVsMJy41xH" name="ページ1">
        <mxGraphModel dx="839" dy="506" grid="1" gridSize="10" guides="1" tooltips="1" connect="1" arrows="1" fold="1" page="1" pageScale="1" pageWidth="1169" pageHeight="827" math="0" shadow="0">
            <root>
                <mxCell id="0"/>
                <mxCell id="1" parent="0"/>
                <mxCell id="655" value="" style="rounded=1;whiteSpace=wrap;html=1;" parent="1" vertex="1">
                    <mxGeometry x="2031.25" y="663" width="142.5" height="25" as="geometry"/>
                </mxCell>
                <mxCell id="3" value="&lt;span style=&quot;font-size: 26px&quot;&gt;・発注TOP画面&lt;/span&gt;" style="text;html=1;resizable=0;autosize=1;align=center;verticalAlign=middle;points=[];fillColor=none;strokeColor=none;rounded=0;" parent="1" vertex="1">
                    <mxGeometry x="70" y="10" width="200" height="20" as="geometry"/>
                </mxCell>
                <mxCell id="4" value="" style="whiteSpace=wrap;html=1;aspect=fixed;fontSize=26;" parent="1" vertex="1">
                    <mxGeometry x="40" y="40" width="280" height="280" as="geometry"/>
                </mxCell>
                <mxCell id="5" value="" style="whiteSpace=wrap;html=1;aspect=fixed;fontSize=26;" parent="1" vertex="1">
                    <mxGeometry x="40" y="520" width="280" height="280" as="geometry"/>
                </mxCell>
                <mxCell id="6" value="" style="whiteSpace=wrap;html=1;aspect=fixed;fontSize=26;" parent="1" vertex="1">
                    <mxGeometry x="400" y="520" width="280" height="280" as="geometry"/>
                </mxCell>
                <mxCell id="7" value="" style="whiteSpace=wrap;html=1;aspect=fixed;fontSize=26;" parent="1" vertex="1">
                    <mxGeometry x="400" y="40" width="280" height="280" as="geometry"/>
                </mxCell>
                <mxCell id="8" value="" style="whiteSpace=wrap;html=1;aspect=fixed;fontSize=26;" parent="1" vertex="1">
                    <mxGeometry x="1169" y="520" width="280" height="280" as="geometry"/>
                </mxCell>
                <mxCell id="9" value="" style="whiteSpace=wrap;html=1;aspect=fixed;fontSize=26;" parent="1" vertex="1">
                    <mxGeometry x="1169" y="40" width="280" height="280" as="geometry"/>
                </mxCell>
                <mxCell id="10" value="" style="whiteSpace=wrap;html=1;aspect=fixed;fontSize=26;" parent="1" vertex="1">
                    <mxGeometry x="790" y="520" width="280" height="280" as="geometry"/>
                </mxCell>
                <mxCell id="11" value="" style="whiteSpace=wrap;html=1;aspect=fixed;fontSize=26;" parent="1" vertex="1">
                    <mxGeometry x="790" y="40" width="280" height="280" as="geometry"/>
                </mxCell>
                <mxCell id="13" value="&lt;font style=&quot;font-size: 10px&quot;&gt;© 2022 All Rights Reserved.&lt;/font&gt;" style="rounded=0;whiteSpace=wrap;html=1;fontSize=26;align=center;" parent="1" vertex="1">
                    <mxGeometry x="40" y="300" width="280" height="20" as="geometry"/>
                </mxCell>
                <mxCell id="24" value="" style="rounded=0;whiteSpace=wrap;html=1;fontSize=26;" parent="1" vertex="1">
                    <mxGeometry x="400" y="40" width="280" height="40" as="geometry"/>
                </mxCell>
                <mxCell id="25" value="&lt;div&gt;&lt;span style=&quot;font-size: x-small&quot;&gt;logo&lt;/span&gt;&lt;/div&gt;" style="ellipse;whiteSpace=wrap;html=1;fontSize=40;align=center;" parent="1" vertex="1">
                    <mxGeometry x="400" y="40" width="50" height="40" as="geometry"/>
                </mxCell>
                <mxCell id="27" value="&lt;font style=&quot;font-size: 7px&quot;&gt;ログイン&lt;/font&gt;" style="rounded=1;whiteSpace=wrap;html=1;fontSize=15;" parent="1" vertex="1">
                    <mxGeometry x="590" y="50" width="40" height="20" as="geometry"/>
                </mxCell>
                <mxCell id="28" value="&lt;div&gt;&lt;span style=&quot;font-size: 7px&quot;&gt;アカウント&lt;/span&gt;&lt;/div&gt;&lt;font style=&quot;font-size: 7px ; line-height: 1&quot;&gt;&lt;div&gt;&lt;span&gt;登録&lt;/span&gt;&lt;/div&gt;&lt;/font&gt;" style="rounded=1;whiteSpace=wrap;html=1;fontSize=15;align=center;" parent="1" vertex="1">
                    <mxGeometry x="630" y="50" width="40" height="20" as="geometry"/>
                </mxCell>
                <mxCell id="29" value="" style="rounded=0;whiteSpace=wrap;html=1;fontSize=26;" parent="1" vertex="1">
                    <mxGeometry x="790" y="40" width="280" height="40" as="geometry"/>
                </mxCell>
                <mxCell id="30" value="&lt;div&gt;&lt;span style=&quot;font-size: x-small&quot;&gt;logo&lt;/span&gt;&lt;/div&gt;" style="ellipse;whiteSpace=wrap;html=1;fontSize=40;align=center;" parent="1" vertex="1">
                    <mxGeometry x="790" y="40" width="50" height="40" as="geometry"/>
                </mxCell>
                <mxCell id="39" value="&lt;font style=&quot;font-size: 10px&quot;&gt;© 2022 All Rights Reserved.&lt;/font&gt;" style="rounded=0;whiteSpace=wrap;html=1;fontSize=26;align=center;" parent="1" vertex="1">
                    <mxGeometry x="40" y="780" width="280" height="20" as="geometry"/>
                </mxCell>
                <mxCell id="40" value="&lt;font style=&quot;font-size: 10px&quot;&gt;© 2022 All Rights Reserved.&lt;/font&gt;" style="rounded=0;whiteSpace=wrap;html=1;fontSize=26;align=center;" parent="1" vertex="1">
                    <mxGeometry x="790" y="780" width="280" height="20" as="geometry"/>
                </mxCell>
                <mxCell id="41" value="&lt;font style=&quot;font-size: 10px&quot;&gt;© 2022 All Rights Reserved.&lt;/font&gt;" style="rounded=0;whiteSpace=wrap;html=1;fontSize=26;align=center;" parent="1" vertex="1">
                    <mxGeometry x="400" y="780" width="280" height="20" as="geometry"/>
                </mxCell>
                <mxCell id="42" value="&lt;font style=&quot;font-size: 10px&quot;&gt;© 2022 All Rights Reserved.&lt;/font&gt;" style="rounded=0;whiteSpace=wrap;html=1;fontSize=26;align=center;" parent="1" vertex="1">
                    <mxGeometry x="1169" y="780" width="280" height="20" as="geometry"/>
                </mxCell>
                <mxCell id="43" value="&lt;font style=&quot;font-size: 10px&quot;&gt;© 2022 All Rights Reserved.&lt;/font&gt;" style="rounded=0;whiteSpace=wrap;html=1;fontSize=26;align=center;" parent="1" vertex="1">
                    <mxGeometry x="1169" y="300" width="280" height="20" as="geometry"/>
                </mxCell>
                <mxCell id="44" value="&lt;font style=&quot;font-size: 10px&quot;&gt;© 2022 All Rights Reserved.&lt;/font&gt;" style="rounded=0;whiteSpace=wrap;html=1;fontSize=26;align=center;" parent="1" vertex="1">
                    <mxGeometry x="790" y="300" width="280" height="20" as="geometry"/>
                </mxCell>
                <mxCell id="45" value="&lt;font style=&quot;font-size: 10px&quot;&gt;© 2022 All Rights Reserved.&lt;/font&gt;" style="rounded=0;whiteSpace=wrap;html=1;fontSize=26;align=center;" parent="1" vertex="1">
                    <mxGeometry x="400" y="300" width="280" height="20" as="geometry"/>
                </mxCell>
                <mxCell id="53" value="&lt;div&gt;&lt;span style=&quot;font-size: x-small&quot;&gt;イラスト&lt;/span&gt;&lt;/div&gt;" style="ellipse;whiteSpace=wrap;html=1;fontSize=40;align=center;" parent="1" vertex="1">
                    <mxGeometry x="430" y="140" width="70" height="60" as="geometry"/>
                </mxCell>
                <mxCell id="54" value="" style="rounded=1;whiteSpace=wrap;html=1;fontSize=10;" parent="1" vertex="1">
                    <mxGeometry x="545" y="123" width="85" height="10" as="geometry"/>
                </mxCell>
                <mxCell id="55" value="" style="rounded=1;whiteSpace=wrap;html=1;fontSize=10;" parent="1" vertex="1">
                    <mxGeometry x="545" y="150" width="85" height="10" as="geometry"/>
                </mxCell>
                <mxCell id="56" value="" style="rounded=1;whiteSpace=wrap;html=1;fontSize=10;" parent="1" vertex="1">
                    <mxGeometry x="545" y="175" width="85" height="10" as="geometry"/>
                </mxCell>
                <mxCell id="57" value="" style="rounded=1;whiteSpace=wrap;html=1;fontSize=10;" parent="1" vertex="1">
                    <mxGeometry x="545" y="200" width="85" height="10" as="geometry"/>
                </mxCell>
                <mxCell id="58" value="名前" style="text;html=1;resizable=0;autosize=1;align=center;verticalAlign=middle;points=[];fillColor=none;strokeColor=none;rounded=0;fontSize=10;" parent="1" vertex="1">
                    <mxGeometry x="530" y="107" width="40" height="20" as="geometry"/>
                </mxCell>
                <mxCell id="59" value="メールアドレス" style="text;html=1;resizable=0;autosize=1;align=center;verticalAlign=middle;points=[];fillColor=none;strokeColor=none;rounded=0;fontSize=10;" parent="1" vertex="1">
                    <mxGeometry x="530" y="133" width="90" height="20" as="geometry"/>
                </mxCell>
                <mxCell id="60" value="パスワード" style="text;html=1;resizable=0;autosize=1;align=center;verticalAlign=middle;points=[];fillColor=none;strokeColor=none;rounded=0;fontSize=10;" parent="1" vertex="1">
                    <mxGeometry x="530" y="160" width="70" height="20" as="geometry"/>
                </mxCell>
                <mxCell id="61" value="パスワード（確認用）" style="text;html=1;resizable=0;autosize=1;align=center;verticalAlign=middle;points=[];fillColor=none;strokeColor=none;rounded=0;fontSize=10;" parent="1" vertex="1">
                    <mxGeometry x="530" y="185" width="120" height="20" as="geometry"/>
                </mxCell>
                <mxCell id="62" value="&lt;font style=&quot;font-size: 26px&quot;&gt;・アカウント登録画面&lt;/font&gt;" style="text;html=1;resizable=0;autosize=1;align=center;verticalAlign=middle;points=[];fillColor=none;strokeColor=none;rounded=0;" parent="1" vertex="1">
                    <mxGeometry x="400" y="10" width="280" height="20" as="geometry"/>
                </mxCell>
                <mxCell id="63" value="" style="whiteSpace=wrap;html=1;aspect=fixed;fontSize=26;" parent="1" vertex="1">
                    <mxGeometry x="1570" y="40" width="280" height="280" as="geometry"/>
                </mxCell>
                <mxCell id="122" value="&lt;span style=&quot;font-size: 26px&quot;&gt;・商品詳細画面&lt;/span&gt;" style="text;html=1;resizable=0;autosize=1;align=center;verticalAlign=middle;points=[];fillColor=none;strokeColor=none;rounded=0;" parent="1" vertex="1">
                    <mxGeometry x="70" y="490" width="200" height="20" as="geometry"/>
                </mxCell>
                <mxCell id="123" value="&lt;font style=&quot;font-size: 7px&quot;&gt;ログイン&lt;/font&gt;" style="rounded=1;whiteSpace=wrap;html=1;fontSize=15;" parent="1" vertex="1">
                    <mxGeometry x="980" y="50" width="40" height="20" as="geometry"/>
                </mxCell>
                <mxCell id="124" value="&lt;div&gt;&lt;span style=&quot;font-size: 7px&quot;&gt;アカウント&lt;/span&gt;&lt;/div&gt;&lt;font style=&quot;font-size: 7px ; line-height: 1&quot;&gt;&lt;div&gt;&lt;span&gt;登録&lt;/span&gt;&lt;/div&gt;&lt;/font&gt;" style="rounded=1;whiteSpace=wrap;html=1;fontSize=15;align=center;" parent="1" vertex="1">
                    <mxGeometry x="1020" y="50" width="40" height="20" as="geometry"/>
                </mxCell>
                <mxCell id="125" value="&lt;font style=&quot;font-size: 26px&quot;&gt;・ログイン画面&lt;/font&gt;" style="text;html=1;resizable=0;autosize=1;align=center;verticalAlign=middle;points=[];fillColor=none;strokeColor=none;rounded=0;" parent="1" vertex="1">
                    <mxGeometry x="830" y="10" width="200" height="20" as="geometry"/>
                </mxCell>
                <mxCell id="131" value="&lt;font size=&quot;1&quot;&gt;イラスト&lt;/font&gt;" style="ellipse;whiteSpace=wrap;html=1;fontSize=40;align=center;" parent="1" vertex="1">
                    <mxGeometry x="820" y="141" width="70" height="60" as="geometry"/>
                </mxCell>
                <mxCell id="132" value="" style="rounded=1;whiteSpace=wrap;html=1;fontSize=10;" parent="1" vertex="1">
                    <mxGeometry x="935" y="151" width="85" height="10" as="geometry"/>
                </mxCell>
                <mxCell id="133" value="メールアドレス" style="text;html=1;resizable=0;autosize=1;align=center;verticalAlign=middle;points=[];fillColor=none;strokeColor=none;rounded=0;fontSize=10;" parent="1" vertex="1">
                    <mxGeometry x="920" y="134" width="90" height="20" as="geometry"/>
                </mxCell>
                <mxCell id="134" value="パスワード" style="text;html=1;resizable=0;autosize=1;align=center;verticalAlign=middle;points=[];fillColor=none;strokeColor=none;rounded=0;fontSize=10;" parent="1" vertex="1">
                    <mxGeometry x="920" y="161" width="70" height="20" as="geometry"/>
                </mxCell>
                <mxCell id="136" value="" style="rounded=1;whiteSpace=wrap;html=1;fontSize=10;" parent="1" vertex="1">
                    <mxGeometry x="935" y="178" width="85" height="10" as="geometry"/>
                </mxCell>
                <mxCell id="137" value="sign up" style="rounded=1;whiteSpace=wrap;html=1;fontSize=7;" parent="1" vertex="1">
                    <mxGeometry x="570" y="220" width="30" height="20" as="geometry"/>
                </mxCell>
                <mxCell id="138" value="log in" style="rounded=1;whiteSpace=wrap;html=1;fontSize=7;" parent="1" vertex="1">
                    <mxGeometry x="962.5" y="195" width="30" height="20" as="geometry"/>
                </mxCell>
                <mxCell id="139" value="パスワードをお忘れですか？" style="text;html=1;resizable=0;autosize=1;align=center;verticalAlign=middle;points=[];fillColor=none;strokeColor=none;rounded=0;fontSize=7;fontStyle=4" parent="1" vertex="1">
                    <mxGeometry x="920" y="220" width="110" height="10" as="geometry"/>
                </mxCell>
                <mxCell id="150" value="" style="group" parent="1" vertex="1" connectable="0">
                    <mxGeometry x="1570" y="40" width="280" height="40" as="geometry"/>
                </mxCell>
                <mxCell id="151" value="" style="rounded=0;whiteSpace=wrap;html=1;fontSize=26;" parent="150" vertex="1">
                    <mxGeometry width="280" height="40" as="geometry"/>
                </mxCell>
                <mxCell id="340" value="" style="group" parent="150" vertex="1" connectable="0">
                    <mxGeometry width="280" height="40" as="geometry"/>
                </mxCell>
                <mxCell id="341" value="" style="rounded=0;whiteSpace=wrap;html=1;fontSize=26;" parent="340" vertex="1">
                    <mxGeometry width="280" height="40" as="geometry"/>
                </mxCell>
                <mxCell id="342" value="&lt;div&gt;&lt;span style=&quot;font-size: x-small&quot;&gt;logo&lt;/span&gt;&lt;/div&gt;" style="ellipse;whiteSpace=wrap;html=1;fontSize=40;align=center;" parent="340" vertex="1">
                    <mxGeometry width="50" height="40" as="geometry"/>
                </mxCell>
                <mxCell id="343" value="&lt;font style=&quot;font-size: 7px&quot;&gt;発注履歴&lt;/font&gt;" style="rounded=1;whiteSpace=wrap;html=1;fontSize=7;" parent="340" vertex="1">
                    <mxGeometry x="150" y="10" width="40" height="20" as="geometry"/>
                </mxCell>
                <mxCell id="344" value="&lt;font style=&quot;font-size: 7px;&quot;&gt;管理&lt;/font&gt;" style="rounded=1;whiteSpace=wrap;html=1;fontSize=7;" parent="340" vertex="1">
                    <mxGeometry x="190" y="10" width="40" height="20" as="geometry"/>
                </mxCell>
                <mxCell id="345" value="&lt;font style=&quot;font-size: 7px;&quot;&gt;ログアウト&lt;/font&gt;" style="rounded=1;whiteSpace=wrap;html=1;fontSize=7;" parent="340" vertex="1">
                    <mxGeometry x="230" y="10" width="40" height="20" as="geometry"/>
                </mxCell>
                <mxCell id="346" value="&lt;span style=&quot;font-size: 7px;&quot;&gt;TOP&lt;/span&gt;" style="rounded=1;whiteSpace=wrap;html=1;fontSize=7;" parent="340" vertex="1">
                    <mxGeometry x="110" y="10" width="40" height="20" as="geometry"/>
                </mxCell>
                <mxCell id="158" value="" style="group" parent="1" vertex="1" connectable="0">
                    <mxGeometry x="790" y="520" width="280" height="40" as="geometry"/>
                </mxCell>
                <mxCell id="159" value="" style="rounded=0;whiteSpace=wrap;html=1;fontSize=26;" parent="158" vertex="1">
                    <mxGeometry width="280" height="40" as="geometry"/>
                </mxCell>
                <mxCell id="490" value="" style="group" parent="158" vertex="1" connectable="0">
                    <mxGeometry width="280" height="40" as="geometry"/>
                </mxCell>
                <mxCell id="491" value="" style="rounded=0;whiteSpace=wrap;html=1;fontSize=26;" parent="490" vertex="1">
                    <mxGeometry width="280" height="40" as="geometry"/>
                </mxCell>
                <mxCell id="492" value="&lt;div&gt;&lt;span style=&quot;font-size: x-small&quot;&gt;logo&lt;/span&gt;&lt;/div&gt;" style="ellipse;whiteSpace=wrap;html=1;fontSize=40;align=center;" parent="490" vertex="1">
                    <mxGeometry width="50" height="40" as="geometry"/>
                </mxCell>
                <mxCell id="493" value="&lt;font style=&quot;font-size: 7px&quot;&gt;発注履歴&lt;/font&gt;" style="rounded=1;whiteSpace=wrap;html=1;fontSize=7;" parent="490" vertex="1">
                    <mxGeometry x="150" y="10" width="40" height="20" as="geometry"/>
                </mxCell>
                <mxCell id="494" value="&lt;font style=&quot;font-size: 7px;&quot;&gt;管理&lt;/font&gt;" style="rounded=1;whiteSpace=wrap;html=1;fontSize=7;" parent="490" vertex="1">
                    <mxGeometry x="190" y="10" width="40" height="20" as="geometry"/>
                </mxCell>
                <mxCell id="495" value="&lt;font style=&quot;font-size: 7px;&quot;&gt;ログアウト&lt;/font&gt;" style="rounded=1;whiteSpace=wrap;html=1;fontSize=7;" parent="490" vertex="1">
                    <mxGeometry x="230" y="10" width="40" height="20" as="geometry"/>
                </mxCell>
                <mxCell id="496" value="&lt;span style=&quot;font-size: 7px;&quot;&gt;TOP&lt;/span&gt;" style="rounded=1;whiteSpace=wrap;html=1;fontSize=7;" parent="490" vertex="1">
                    <mxGeometry x="110" y="10" width="40" height="20" as="geometry"/>
                </mxCell>
                <mxCell id="166" value="&lt;span style=&quot;font-size: 26px&quot;&gt;・発注履歴一覧画面&lt;/span&gt;" style="text;html=1;resizable=0;autosize=1;align=center;verticalAlign=middle;points=[];fillColor=none;strokeColor=none;rounded=0;" parent="1" vertex="1">
                    <mxGeometry x="405" y="490" width="250" height="20" as="geometry"/>
                </mxCell>
                <mxCell id="263" value="&lt;span style=&quot;font-size: 26px&quot;&gt;・発注詳細画面&lt;/span&gt;" style="text;html=1;resizable=0;autosize=1;align=center;verticalAlign=middle;points=[];fillColor=none;strokeColor=none;rounded=0;" parent="1" vertex="1">
                    <mxGeometry x="820" y="490" width="200" height="20" as="geometry"/>
                </mxCell>
                <mxCell id="264" value="戻る" style="ellipse;whiteSpace=wrap;html=1;aspect=fixed;fontSize=7;" parent="1" vertex="1">
                    <mxGeometry x="910" y="730" width="40" height="40" as="geometry"/>
                </mxCell>
                <mxCell id="272" value="&lt;span style=&quot;font-size: 26px&quot;&gt;・発注確認画面&lt;/span&gt;" style="text;html=1;resizable=0;autosize=1;align=center;verticalAlign=middle;points=[];fillColor=none;strokeColor=none;rounded=0;" parent="1" vertex="1">
                    <mxGeometry x="1210" y="490" width="200" height="20" as="geometry"/>
                </mxCell>
                <mxCell id="279" value="" style="rounded=1;whiteSpace=wrap;html=1;fontSize=4;" parent="1" vertex="1">
                    <mxGeometry x="1240" y="585" width="120" height="25" as="geometry"/>
                </mxCell>
                <mxCell id="280" value="" style="rounded=1;whiteSpace=wrap;html=1;fontSize=4;" parent="1" vertex="1">
                    <mxGeometry x="1240" y="615" width="120" height="25" as="geometry"/>
                </mxCell>
                <mxCell id="281" value="" style="rounded=1;whiteSpace=wrap;html=1;fontSize=4;" parent="1" vertex="1">
                    <mxGeometry x="1240" y="647" width="120" height="23" as="geometry"/>
                </mxCell>
                <mxCell id="282" value="&lt;font style=&quot;font-size: 7px&quot;&gt;発注&lt;br&gt;&lt;/font&gt;" style="ellipse;whiteSpace=wrap;html=1;aspect=fixed;fontSize=4;" parent="1" vertex="1">
                    <mxGeometry x="1255" y="722" width="35" height="35" as="geometry"/>
                </mxCell>
                <mxCell id="283" value="商品" style="text;html=1;resizable=0;autosize=1;align=center;verticalAlign=middle;points=[];fillColor=none;strokeColor=none;rounded=0;fontSize=7;" parent="1" vertex="1">
                    <mxGeometry x="1205" y="590" width="30" height="10" as="geometry"/>
                </mxCell>
                <mxCell id="284" value="合計金額" style="text;html=1;resizable=0;autosize=1;align=center;verticalAlign=middle;points=[];fillColor=none;strokeColor=none;rounded=0;fontSize=7;" parent="1" vertex="1">
                    <mxGeometry x="1200" y="615" width="40" height="10" as="geometry"/>
                </mxCell>
                <mxCell id="285" value="配送先" style="text;html=1;resizable=0;autosize=1;align=center;verticalAlign=middle;points=[];fillColor=none;strokeColor=none;rounded=0;fontSize=7;" parent="1" vertex="1">
                    <mxGeometry x="1200" y="655" width="40" height="10" as="geometry"/>
                </mxCell>
                <mxCell id="286" value="&lt;font style=&quot;font-size: 26px&quot;&gt;・アカウント詳細画面&lt;/font&gt;" style="text;html=1;resizable=0;autosize=1;align=center;verticalAlign=middle;points=[];fillColor=none;strokeColor=none;rounded=0;" parent="1" vertex="1">
                    <mxGeometry x="1160" y="10" width="280" height="20" as="geometry"/>
                </mxCell>
                <mxCell id="287" value="&lt;font style=&quot;font-size: 26px&quot;&gt;・アカウント編集画面&lt;/font&gt;" style="text;html=1;resizable=0;autosize=1;align=center;verticalAlign=middle;points=[];fillColor=none;strokeColor=none;rounded=0;" parent="1" vertex="1">
                    <mxGeometry x="1565" y="10" width="280" height="20" as="geometry"/>
                </mxCell>
                <mxCell id="288" value="編集" style="ellipse;whiteSpace=wrap;html=1;aspect=fixed;fontSize=7;" parent="1" vertex="1">
                    <mxGeometry x="1250" y="178" width="30" height="30" as="geometry"/>
                </mxCell>
                <mxCell id="289" value="退会" style="ellipse;whiteSpace=wrap;html=1;aspect=fixed;fontSize=7;" parent="1" vertex="1">
                    <mxGeometry x="1315" y="178" width="30" height="30" as="geometry"/>
                </mxCell>
                <mxCell id="290" value="" style="rounded=1;whiteSpace=wrap;html=1;fontSize=10;" parent="1" vertex="1">
                    <mxGeometry x="1255" y="113" width="85" height="10" as="geometry"/>
                </mxCell>
                <mxCell id="291" value="" style="rounded=1;whiteSpace=wrap;html=1;fontSize=10;" parent="1" vertex="1">
                    <mxGeometry x="1255" y="140" width="85" height="10" as="geometry"/>
                </mxCell>
                <mxCell id="293" value="名前" style="text;html=1;resizable=0;autosize=1;align=center;verticalAlign=middle;points=[];fillColor=none;strokeColor=none;rounded=0;fontSize=10;" parent="1" vertex="1">
                    <mxGeometry x="1240" y="97" width="40" height="20" as="geometry"/>
                </mxCell>
                <mxCell id="294" value="メールアドレス" style="text;html=1;resizable=0;autosize=1;align=center;verticalAlign=middle;points=[];fillColor=none;strokeColor=none;rounded=0;fontSize=10;" parent="1" vertex="1">
                    <mxGeometry x="1240" y="123" width="90" height="20" as="geometry"/>
                </mxCell>
                <mxCell id="297" value="アカウント情報" style="text;html=1;resizable=0;autosize=1;align=center;verticalAlign=middle;points=[];fillColor=none;strokeColor=none;rounded=0;fontSize=10;" parent="1" vertex="1">
                    <mxGeometry x="1250" y="87" width="90" height="20" as="geometry"/>
                </mxCell>
                <mxCell id="309" value="更新" style="ellipse;whiteSpace=wrap;html=1;aspect=fixed;fontSize=7;" parent="1" vertex="1">
                    <mxGeometry x="1665" y="250" width="30" height="30" as="geometry"/>
                </mxCell>
                <mxCell id="310" value="戻る" style="ellipse;whiteSpace=wrap;html=1;aspect=fixed;fontSize=7;" parent="1" vertex="1">
                    <mxGeometry x="1724" y="250" width="30" height="30" as="geometry"/>
                </mxCell>
                <mxCell id="311" value="" style="rounded=1;whiteSpace=wrap;html=1;fontSize=10;" parent="1" vertex="1">
                    <mxGeometry x="1665" y="113" width="85" height="10" as="geometry"/>
                </mxCell>
                <mxCell id="312" value="" style="rounded=1;whiteSpace=wrap;html=1;fontSize=10;" parent="1" vertex="1">
                    <mxGeometry x="1665" y="140" width="85" height="10" as="geometry"/>
                </mxCell>
                <mxCell id="313" value="" style="rounded=1;whiteSpace=wrap;html=1;fontSize=10;" parent="1" vertex="1">
                    <mxGeometry x="1665" y="165" width="85" height="10" as="geometry"/>
                </mxCell>
                <mxCell id="314" value="名前" style="text;html=1;resizable=0;autosize=1;align=center;verticalAlign=middle;points=[];fillColor=none;strokeColor=none;rounded=0;fontSize=10;" parent="1" vertex="1">
                    <mxGeometry x="1650" y="97" width="40" height="20" as="geometry"/>
                </mxCell>
                <mxCell id="315" value="メールアドレス" style="text;html=1;resizable=0;autosize=1;align=center;verticalAlign=middle;points=[];fillColor=none;strokeColor=none;rounded=0;fontSize=10;" parent="1" vertex="1">
                    <mxGeometry x="1650" y="123" width="90" height="20" as="geometry"/>
                </mxCell>
                <mxCell id="316" value="パスワード" style="text;html=1;resizable=0;autosize=1;align=center;verticalAlign=middle;points=[];fillColor=none;strokeColor=none;rounded=0;fontSize=10;" parent="1" vertex="1">
                    <mxGeometry x="1650" y="150" width="70" height="20" as="geometry"/>
                </mxCell>
                <mxCell id="317" value="パスワード（確認用）" style="text;html=1;resizable=0;autosize=1;align=center;verticalAlign=middle;points=[];fillColor=none;strokeColor=none;rounded=0;fontSize=10;" parent="1" vertex="1">
                    <mxGeometry x="1650" y="175" width="120" height="20" as="geometry"/>
                </mxCell>
                <mxCell id="318" value="アカウント編集" style="text;html=1;resizable=0;autosize=1;align=center;verticalAlign=middle;points=[];fillColor=none;strokeColor=none;rounded=0;fontSize=10;" parent="1" vertex="1">
                    <mxGeometry x="1660" y="83" width="90" height="20" as="geometry"/>
                </mxCell>
                <mxCell id="319" value="" style="rounded=1;whiteSpace=wrap;html=1;fontSize=10;" parent="1" vertex="1">
                    <mxGeometry x="1665" y="195" width="85" height="10" as="geometry"/>
                </mxCell>
                <mxCell id="322" value="現在のパスワード" style="text;html=1;resizable=0;autosize=1;align=center;verticalAlign=middle;points=[];fillColor=none;strokeColor=none;rounded=0;fontSize=10;" parent="1" vertex="1">
                    <mxGeometry x="1650" y="205" width="100" height="20" as="geometry"/>
                </mxCell>
                <mxCell id="323" value="" style="rounded=1;whiteSpace=wrap;html=1;fontSize=10;" parent="1" vertex="1">
                    <mxGeometry x="1665" y="225" width="85" height="10" as="geometry"/>
                </mxCell>
                <mxCell id="324" value="&lt;font style=&quot;font-size: 10px&quot;&gt;© 2022 All Rights Reserved.&lt;/font&gt;" style="rounded=0;whiteSpace=wrap;html=1;fontSize=26;align=center;" parent="1" vertex="1">
                    <mxGeometry x="1570" y="300" width="280" height="20" as="geometry"/>
                </mxCell>
                <mxCell id="325" value="" style="group" parent="1" vertex="1" connectable="0">
                    <mxGeometry x="40" y="40" width="280" height="40" as="geometry"/>
                </mxCell>
                <mxCell id="12" value="" style="rounded=0;whiteSpace=wrap;html=1;fontSize=26;" parent="325" vertex="1">
                    <mxGeometry width="280" height="40" as="geometry"/>
                </mxCell>
                <mxCell id="15" value="&lt;div&gt;&lt;span style=&quot;font-size: x-small&quot;&gt;logo&lt;/span&gt;&lt;/div&gt;" style="ellipse;whiteSpace=wrap;html=1;fontSize=40;align=center;" parent="325" vertex="1">
                    <mxGeometry width="50" height="40" as="geometry"/>
                </mxCell>
                <mxCell id="20" value="&lt;font style=&quot;font-size: 7px&quot;&gt;発注履歴&lt;/font&gt;" style="rounded=1;whiteSpace=wrap;html=1;fontSize=7;" parent="325" vertex="1">
                    <mxGeometry x="150" y="10" width="40" height="20" as="geometry"/>
                </mxCell>
                <mxCell id="22" value="&lt;font style=&quot;font-size: 7px;&quot;&gt;管理&lt;/font&gt;" style="rounded=1;whiteSpace=wrap;html=1;fontSize=7;" parent="325" vertex="1">
                    <mxGeometry x="190" y="10" width="40" height="20" as="geometry"/>
                </mxCell>
                <mxCell id="23" value="&lt;font style=&quot;font-size: 7px;&quot;&gt;ログアウト&lt;/font&gt;" style="rounded=1;whiteSpace=wrap;html=1;fontSize=7;" parent="325" vertex="1">
                    <mxGeometry x="230" y="10" width="40" height="20" as="geometry"/>
                </mxCell>
                <mxCell id="65" value="&lt;span style=&quot;font-size: 7px;&quot;&gt;TOP&lt;/span&gt;" style="rounded=1;whiteSpace=wrap;html=1;fontSize=7;" parent="325" vertex="1">
                    <mxGeometry x="110" y="10" width="40" height="20" as="geometry"/>
                </mxCell>
                <mxCell id="326" value="" style="group" parent="1" vertex="1" connectable="0">
                    <mxGeometry x="40" y="520" width="280" height="40" as="geometry"/>
                </mxCell>
                <mxCell id="327" value="" style="rounded=0;whiteSpace=wrap;html=1;fontSize=26;" parent="326" vertex="1">
                    <mxGeometry width="280" height="40" as="geometry"/>
                </mxCell>
                <mxCell id="328" value="&lt;div&gt;&lt;span style=&quot;font-size: x-small&quot;&gt;logo&lt;/span&gt;&lt;/div&gt;" style="ellipse;whiteSpace=wrap;html=1;fontSize=40;align=center;" parent="326" vertex="1">
                    <mxGeometry width="50" height="40" as="geometry"/>
                </mxCell>
                <mxCell id="329" value="&lt;font style=&quot;font-size: 7px&quot;&gt;発注履歴&lt;/font&gt;" style="rounded=1;whiteSpace=wrap;html=1;fontSize=7;" parent="326" vertex="1">
                    <mxGeometry x="150" y="10" width="40" height="20" as="geometry"/>
                </mxCell>
                <mxCell id="330" value="&lt;font style=&quot;font-size: 7px;&quot;&gt;管理&lt;/font&gt;" style="rounded=1;whiteSpace=wrap;html=1;fontSize=7;" parent="326" vertex="1">
                    <mxGeometry x="190" y="10" width="40" height="20" as="geometry"/>
                </mxCell>
                <mxCell id="331" value="&lt;font style=&quot;font-size: 7px;&quot;&gt;ログアウト&lt;/font&gt;" style="rounded=1;whiteSpace=wrap;html=1;fontSize=7;" parent="326" vertex="1">
                    <mxGeometry x="230" y="10" width="40" height="20" as="geometry"/>
                </mxCell>
                <mxCell id="332" value="&lt;span style=&quot;font-size: 7px;&quot;&gt;TOP&lt;/span&gt;" style="rounded=1;whiteSpace=wrap;html=1;fontSize=7;" parent="326" vertex="1">
                    <mxGeometry x="110" y="10" width="40" height="20" as="geometry"/>
                </mxCell>
                <mxCell id="333" value="" style="group" parent="1" vertex="1" connectable="0">
                    <mxGeometry x="400" y="520" width="280" height="40" as="geometry"/>
                </mxCell>
                <mxCell id="334" value="" style="rounded=0;whiteSpace=wrap;html=1;fontSize=26;" parent="333" vertex="1">
                    <mxGeometry width="280" height="40" as="geometry"/>
                </mxCell>
                <mxCell id="335" value="&lt;div&gt;&lt;span style=&quot;font-size: x-small&quot;&gt;logo&lt;/span&gt;&lt;/div&gt;" style="ellipse;whiteSpace=wrap;html=1;fontSize=40;align=center;" parent="333" vertex="1">
                    <mxGeometry width="50" height="40" as="geometry"/>
                </mxCell>
                <mxCell id="336" value="&lt;font style=&quot;font-size: 7px&quot;&gt;発注履歴&lt;/font&gt;" style="rounded=1;whiteSpace=wrap;html=1;fontSize=7;" parent="333" vertex="1">
                    <mxGeometry x="150" y="10" width="40" height="20" as="geometry"/>
                </mxCell>
                <mxCell id="337" value="&lt;font style=&quot;font-size: 7px;&quot;&gt;管理&lt;/font&gt;" style="rounded=1;whiteSpace=wrap;html=1;fontSize=7;" parent="333" vertex="1">
                    <mxGeometry x="190" y="10" width="40" height="20" as="geometry"/>
                </mxCell>
                <mxCell id="338" value="&lt;font style=&quot;font-size: 7px;&quot;&gt;ログアウト&lt;/font&gt;" style="rounded=1;whiteSpace=wrap;html=1;fontSize=7;" parent="333" vertex="1">
                    <mxGeometry x="230" y="10" width="40" height="20" as="geometry"/>
                </mxCell>
                <mxCell id="339" value="&lt;span style=&quot;font-size: 7px;&quot;&gt;TOP&lt;/span&gt;" style="rounded=1;whiteSpace=wrap;html=1;fontSize=7;" parent="333" vertex="1">
                    <mxGeometry x="110" y="10" width="40" height="20" as="geometry"/>
                </mxCell>
                <mxCell id="347" value="" style="group" parent="1" vertex="1" connectable="0">
                    <mxGeometry x="1169" y="40" width="280" height="40" as="geometry"/>
                </mxCell>
                <mxCell id="348" value="" style="rounded=0;whiteSpace=wrap;html=1;fontSize=26;" parent="347" vertex="1">
                    <mxGeometry width="280" height="40" as="geometry"/>
                </mxCell>
                <mxCell id="349" value="&lt;div&gt;&lt;span style=&quot;font-size: x-small&quot;&gt;logo&lt;/span&gt;&lt;/div&gt;" style="ellipse;whiteSpace=wrap;html=1;fontSize=40;align=center;" parent="347" vertex="1">
                    <mxGeometry width="50" height="40" as="geometry"/>
                </mxCell>
                <mxCell id="350" value="&lt;font style=&quot;font-size: 7px&quot;&gt;発注履歴&lt;/font&gt;" style="rounded=1;whiteSpace=wrap;html=1;fontSize=7;" parent="347" vertex="1">
                    <mxGeometry x="150" y="10" width="40" height="20" as="geometry"/>
                </mxCell>
                <mxCell id="351" value="&lt;font style=&quot;font-size: 7px;&quot;&gt;管理&lt;/font&gt;" style="rounded=1;whiteSpace=wrap;html=1;fontSize=7;" parent="347" vertex="1">
                    <mxGeometry x="190" y="10" width="40" height="20" as="geometry"/>
                </mxCell>
                <mxCell id="352" value="&lt;font style=&quot;font-size: 7px;&quot;&gt;ログアウト&lt;/font&gt;" style="rounded=1;whiteSpace=wrap;html=1;fontSize=7;" parent="347" vertex="1">
                    <mxGeometry x="230" y="10" width="40" height="20" as="geometry"/>
                </mxCell>
                <mxCell id="353" value="&lt;span style=&quot;font-size: 7px;&quot;&gt;TOP&lt;/span&gt;" style="rounded=1;whiteSpace=wrap;html=1;fontSize=7;" parent="347" vertex="1">
                    <mxGeometry x="110" y="10" width="40" height="20" as="geometry"/>
                </mxCell>
                <mxCell id="354" value="" style="rounded=1;whiteSpace=wrap;html=1;fontSize=10;" parent="1" vertex="1">
                    <mxGeometry x="1255" y="163.5" width="85" height="10" as="geometry"/>
                </mxCell>
                <mxCell id="355" value="店舗名" style="text;html=1;resizable=0;autosize=1;align=center;verticalAlign=middle;points=[];fillColor=none;strokeColor=none;rounded=0;fontSize=10;" parent="1" vertex="1">
                    <mxGeometry x="1245" y="146" width="50" height="20" as="geometry"/>
                </mxCell>
                <mxCell id="356" value="&lt;font style=&quot;font-size: 10px&quot;&gt;注文数　○○　合計　○○円　　　　発注に進む&lt;/font&gt;" style="rounded=0;whiteSpace=wrap;html=1;fontSize=7;" parent="1" vertex="1">
                    <mxGeometry x="40" y="270" width="280" height="30" as="geometry"/>
                </mxCell>
                <mxCell id="358" value="" style="rounded=1;whiteSpace=wrap;html=1;fontSize=10;" parent="1" vertex="1">
                    <mxGeometry x="60" y="97" width="70" height="43" as="geometry"/>
                </mxCell>
                <mxCell id="359" value="&lt;font style=&quot;font-size: 9px&quot;&gt;入れる&lt;/font&gt;" style="ellipse;whiteSpace=wrap;html=1;fontSize=10;" parent="1" vertex="1">
                    <mxGeometry x="100" y="123" width="30" height="17" as="geometry"/>
                </mxCell>
                <mxCell id="361" value="" style="html=1;whiteSpace=wrap;shape=isoCube2;backgroundOutline=1;isoAngle=15;fontSize=10;" parent="1" vertex="1">
                    <mxGeometry x="66" y="103.5" width="30" height="30" as="geometry"/>
                </mxCell>
                <mxCell id="362" value="&lt;font style=&quot;font-size: 9px&quot;&gt;詳細&lt;/font&gt;" style="ellipse;whiteSpace=wrap;html=1;fontSize=10;" parent="1" vertex="1">
                    <mxGeometry x="100" y="103" width="30" height="17" as="geometry"/>
                </mxCell>
                <mxCell id="363" value="" style="rounded=1;whiteSpace=wrap;html=1;fontSize=10;" parent="1" vertex="1">
                    <mxGeometry x="140" y="97" width="70" height="43" as="geometry"/>
                </mxCell>
                <mxCell id="364" value="&lt;font style=&quot;font-size: 9px&quot;&gt;入れる&lt;/font&gt;" style="ellipse;whiteSpace=wrap;html=1;fontSize=10;" parent="1" vertex="1">
                    <mxGeometry x="180" y="123" width="30" height="17" as="geometry"/>
                </mxCell>
                <mxCell id="365" value="" style="html=1;whiteSpace=wrap;shape=isoCube2;backgroundOutline=1;isoAngle=15;fontSize=10;" parent="1" vertex="1">
                    <mxGeometry x="146" y="103.5" width="30" height="30" as="geometry"/>
                </mxCell>
                <mxCell id="366" value="&lt;font style=&quot;font-size: 9px&quot;&gt;詳細&lt;/font&gt;" style="ellipse;whiteSpace=wrap;html=1;fontSize=10;" parent="1" vertex="1">
                    <mxGeometry x="180" y="103" width="30" height="17" as="geometry"/>
                </mxCell>
                <mxCell id="367" value="" style="rounded=1;whiteSpace=wrap;html=1;fontSize=10;" parent="1" vertex="1">
                    <mxGeometry x="220" y="96.5" width="70" height="43" as="geometry"/>
                </mxCell>
                <mxCell id="368" value="&lt;font style=&quot;font-size: 9px&quot;&gt;入れる&lt;/font&gt;" style="ellipse;whiteSpace=wrap;html=1;fontSize=10;" parent="1" vertex="1">
                    <mxGeometry x="260" y="122.5" width="30" height="17" as="geometry"/>
                </mxCell>
                <mxCell id="369" value="" style="html=1;whiteSpace=wrap;shape=isoCube2;backgroundOutline=1;isoAngle=15;fontSize=10;" parent="1" vertex="1">
                    <mxGeometry x="226" y="103" width="30" height="30" as="geometry"/>
                </mxCell>
                <mxCell id="370" value="&lt;font style=&quot;font-size: 9px&quot;&gt;詳細&lt;/font&gt;" style="ellipse;whiteSpace=wrap;html=1;fontSize=10;" parent="1" vertex="1">
                    <mxGeometry x="260" y="102.5" width="30" height="17" as="geometry"/>
                </mxCell>
                <mxCell id="371" value="" style="rounded=1;whiteSpace=wrap;html=1;fontSize=10;" parent="1" vertex="1">
                    <mxGeometry x="60" y="152" width="70" height="43" as="geometry"/>
                </mxCell>
                <mxCell id="372" value="&lt;font style=&quot;font-size: 9px&quot;&gt;入れる&lt;/font&gt;" style="ellipse;whiteSpace=wrap;html=1;fontSize=10;" parent="1" vertex="1">
                    <mxGeometry x="100" y="178" width="30" height="17" as="geometry"/>
                </mxCell>
                <mxCell id="373" value="" style="html=1;whiteSpace=wrap;shape=isoCube2;backgroundOutline=1;isoAngle=15;fontSize=10;" parent="1" vertex="1">
                    <mxGeometry x="66" y="158.5" width="30" height="30" as="geometry"/>
                </mxCell>
                <mxCell id="374" value="&lt;font style=&quot;font-size: 9px&quot;&gt;詳細&lt;/font&gt;" style="ellipse;whiteSpace=wrap;html=1;fontSize=10;" parent="1" vertex="1">
                    <mxGeometry x="100" y="158" width="30" height="17" as="geometry"/>
                </mxCell>
                <mxCell id="375" value="" style="rounded=1;whiteSpace=wrap;html=1;fontSize=10;" parent="1" vertex="1">
                    <mxGeometry x="140" y="152" width="70" height="43" as="geometry"/>
                </mxCell>
                <mxCell id="376" value="&lt;font style=&quot;font-size: 9px&quot;&gt;入れる&lt;/font&gt;" style="ellipse;whiteSpace=wrap;html=1;fontSize=10;" parent="1" vertex="1">
                    <mxGeometry x="180" y="178" width="30" height="17" as="geometry"/>
                </mxCell>
                <mxCell id="377" value="" style="html=1;whiteSpace=wrap;shape=isoCube2;backgroundOutline=1;isoAngle=15;fontSize=10;" parent="1" vertex="1">
                    <mxGeometry x="146" y="158.5" width="30" height="30" as="geometry"/>
                </mxCell>
                <mxCell id="378" value="&lt;font style=&quot;font-size: 9px&quot;&gt;詳細&lt;/font&gt;" style="ellipse;whiteSpace=wrap;html=1;fontSize=10;" parent="1" vertex="1">
                    <mxGeometry x="180" y="158" width="30" height="17" as="geometry"/>
                </mxCell>
                <mxCell id="379" value="" style="rounded=1;whiteSpace=wrap;html=1;fontSize=10;" parent="1" vertex="1">
                    <mxGeometry x="220" y="152" width="70" height="43" as="geometry"/>
                </mxCell>
                <mxCell id="380" value="&lt;font style=&quot;font-size: 9px&quot;&gt;入れる&lt;/font&gt;" style="ellipse;whiteSpace=wrap;html=1;fontSize=10;" parent="1" vertex="1">
                    <mxGeometry x="260" y="178" width="30" height="17" as="geometry"/>
                </mxCell>
                <mxCell id="381" value="" style="html=1;whiteSpace=wrap;shape=isoCube2;backgroundOutline=1;isoAngle=15;fontSize=10;" parent="1" vertex="1">
                    <mxGeometry x="226" y="158.5" width="30" height="30" as="geometry"/>
                </mxCell>
                <mxCell id="382" value="&lt;font style=&quot;font-size: 9px&quot;&gt;詳細&lt;/font&gt;" style="ellipse;whiteSpace=wrap;html=1;fontSize=10;" parent="1" vertex="1">
                    <mxGeometry x="260" y="158" width="30" height="17" as="geometry"/>
                </mxCell>
                <mxCell id="383" value="" style="rounded=1;whiteSpace=wrap;html=1;fontSize=10;" parent="1" vertex="1">
                    <mxGeometry x="60" y="207" width="70" height="43" as="geometry"/>
                </mxCell>
                <mxCell id="384" value="&lt;font style=&quot;font-size: 9px&quot;&gt;入れる&lt;/font&gt;" style="ellipse;whiteSpace=wrap;html=1;fontSize=10;" parent="1" vertex="1">
                    <mxGeometry x="100" y="233" width="30" height="17" as="geometry"/>
                </mxCell>
                <mxCell id="385" value="" style="html=1;whiteSpace=wrap;shape=isoCube2;backgroundOutline=1;isoAngle=15;fontSize=10;" parent="1" vertex="1">
                    <mxGeometry x="66" y="213.5" width="30" height="30" as="geometry"/>
                </mxCell>
                <mxCell id="386" value="&lt;font style=&quot;font-size: 9px&quot;&gt;詳細&lt;/font&gt;" style="ellipse;whiteSpace=wrap;html=1;fontSize=10;" parent="1" vertex="1">
                    <mxGeometry x="100" y="213" width="30" height="17" as="geometry"/>
                </mxCell>
                <mxCell id="387" value="" style="rounded=1;whiteSpace=wrap;html=1;fontSize=10;" parent="1" vertex="1">
                    <mxGeometry x="140" y="207" width="70" height="43" as="geometry"/>
                </mxCell>
                <mxCell id="388" value="&lt;font style=&quot;font-size: 9px&quot;&gt;入れる&lt;/font&gt;" style="ellipse;whiteSpace=wrap;html=1;fontSize=10;" parent="1" vertex="1">
                    <mxGeometry x="180" y="233" width="30" height="17" as="geometry"/>
                </mxCell>
                <mxCell id="389" value="" style="html=1;whiteSpace=wrap;shape=isoCube2;backgroundOutline=1;isoAngle=15;fontSize=10;" parent="1" vertex="1">
                    <mxGeometry x="146" y="213.5" width="30" height="30" as="geometry"/>
                </mxCell>
                <mxCell id="390" value="&lt;font style=&quot;font-size: 9px&quot;&gt;詳細&lt;/font&gt;" style="ellipse;whiteSpace=wrap;html=1;fontSize=10;" parent="1" vertex="1">
                    <mxGeometry x="180" y="213" width="30" height="17" as="geometry"/>
                </mxCell>
                <mxCell id="391" value="" style="rounded=1;whiteSpace=wrap;html=1;fontSize=10;" parent="1" vertex="1">
                    <mxGeometry x="220" y="207" width="70" height="43" as="geometry"/>
                </mxCell>
                <mxCell id="392" value="&lt;font style=&quot;font-size: 9px&quot;&gt;入れる&lt;/font&gt;" style="ellipse;whiteSpace=wrap;html=1;fontSize=10;" parent="1" vertex="1">
                    <mxGeometry x="260" y="233" width="30" height="17" as="geometry"/>
                </mxCell>
                <mxCell id="393" value="" style="html=1;whiteSpace=wrap;shape=isoCube2;backgroundOutline=1;isoAngle=15;fontSize=10;" parent="1" vertex="1">
                    <mxGeometry x="226" y="213.5" width="30" height="30" as="geometry"/>
                </mxCell>
                <mxCell id="394" value="&lt;font style=&quot;font-size: 9px&quot;&gt;詳細&lt;/font&gt;" style="ellipse;whiteSpace=wrap;html=1;fontSize=10;" parent="1" vertex="1">
                    <mxGeometry x="260" y="213" width="30" height="17" as="geometry"/>
                </mxCell>
                <mxCell id="399" value="" style="html=1;whiteSpace=wrap;shape=isoCube2;backgroundOutline=1;isoAngle=15;fontSize=9;" parent="1" vertex="1">
                    <mxGeometry x="66" y="600" width="90" height="100" as="geometry"/>
                </mxCell>
                <mxCell id="400" value="戻る" style="ellipse;whiteSpace=wrap;html=1;aspect=fixed;fontSize=9;" parent="1" vertex="1">
                    <mxGeometry x="164.5" y="730" width="31" height="31" as="geometry"/>
                </mxCell>
                <mxCell id="401" value="商品A" style="rounded=0;whiteSpace=wrap;html=1;fontSize=9;" parent="1" vertex="1">
                    <mxGeometry x="180" y="593" width="104" height="22" as="geometry"/>
                </mxCell>
                <mxCell id="402" value="1,200円" style="rounded=0;whiteSpace=wrap;html=1;fontSize=9;" parent="1" vertex="1">
                    <mxGeometry x="180" y="655" width="104" height="22" as="geometry"/>
                </mxCell>
                <mxCell id="403" value="在庫数：6点" style="rounded=0;whiteSpace=wrap;html=1;fontSize=9;" parent="1" vertex="1">
                    <mxGeometry x="180" y="688" width="104" height="22" as="geometry"/>
                </mxCell>
                <mxCell id="404" value="使いやすい工具です。" style="rounded=0;whiteSpace=wrap;html=1;fontSize=9;" parent="1" vertex="1">
                    <mxGeometry x="180" y="625" width="104" height="22" as="geometry"/>
                </mxCell>
                <mxCell id="457" value="発注履歴" style="shape=table;startSize=30;container=1;collapsible=0;childLayout=tableLayout;fontSize=9;" parent="1" vertex="1">
                    <mxGeometry x="400" y="560" width="280" height="220" as="geometry"/>
                </mxCell>
                <mxCell id="458" value="" style="shape=partialRectangle;collapsible=0;dropTarget=0;pointerEvents=0;fillColor=none;top=0;left=0;bottom=0;right=0;points=[[0,0.5],[1,0.5]];portConstraint=eastwest;fontSize=9;" parent="457" vertex="1">
                    <mxGeometry y="30" width="280" height="38" as="geometry"/>
                </mxCell>
                <mxCell id="459" value="注文日" style="shape=partialRectangle;html=1;whiteSpace=wrap;connectable=0;overflow=hidden;fillColor=none;top=0;left=0;bottom=0;right=0;pointerEvents=1;fontSize=9;" parent="458" vertex="1">
                    <mxGeometry width="30" height="38" as="geometry">
                        <mxRectangle width="30" height="38" as="alternateBounds"/>
                    </mxGeometry>
                </mxCell>
                <mxCell id="460" value="注文品" style="shape=partialRectangle;html=1;whiteSpace=wrap;connectable=0;overflow=hidden;fillColor=none;top=0;left=0;bottom=0;right=0;pointerEvents=1;fontSize=9;" parent="458" vertex="1">
                    <mxGeometry x="30" width="130" height="38" as="geometry">
                        <mxRectangle width="130" height="38" as="alternateBounds"/>
                    </mxGeometry>
                </mxCell>
                <mxCell id="461" value="" style="shape=partialRectangle;html=1;whiteSpace=wrap;connectable=0;overflow=hidden;fillColor=none;top=0;left=0;bottom=0;right=0;pointerEvents=1;fontSize=9;" parent="458" vertex="1">
                    <mxGeometry x="160" width="60" height="38" as="geometry">
                        <mxRectangle width="60" height="38" as="alternateBounds"/>
                    </mxGeometry>
                </mxCell>
                <mxCell id="462" value="詳細" style="shape=partialRectangle;html=1;whiteSpace=wrap;connectable=0;overflow=hidden;fillColor=none;top=0;left=0;bottom=0;right=0;pointerEvents=1;fontSize=9;" parent="458" vertex="1">
                    <mxGeometry x="220" width="30" height="38" as="geometry">
                        <mxRectangle width="30" height="38" as="alternateBounds"/>
                    </mxGeometry>
                </mxCell>
                <mxCell id="463" value="" style="shape=partialRectangle;html=1;whiteSpace=wrap;connectable=0;overflow=hidden;fillColor=none;top=0;left=0;bottom=0;right=0;pointerEvents=1;fontSize=9;" parent="458" vertex="1">
                    <mxGeometry x="250" width="30" height="38" as="geometry">
                        <mxRectangle width="30" height="38" as="alternateBounds"/>
                    </mxGeometry>
                </mxCell>
                <mxCell id="464" value="" style="shape=partialRectangle;collapsible=0;dropTarget=0;pointerEvents=0;fillColor=none;top=0;left=0;bottom=0;right=0;points=[[0,0.5],[1,0.5]];portConstraint=eastwest;fontSize=9;" parent="457" vertex="1">
                    <mxGeometry y="68" width="280" height="38" as="geometry"/>
                </mxCell>
                <mxCell id="465" value="6/10" style="shape=partialRectangle;html=1;whiteSpace=wrap;connectable=0;overflow=hidden;fillColor=none;top=0;left=0;bottom=0;right=0;pointerEvents=1;fontSize=9;" parent="464" vertex="1">
                    <mxGeometry width="30" height="38" as="geometry">
                        <mxRectangle width="30" height="38" as="alternateBounds"/>
                    </mxGeometry>
                </mxCell>
                <mxCell id="466" value="商品A×２、商品B×３" style="shape=partialRectangle;html=1;whiteSpace=wrap;connectable=0;overflow=hidden;fillColor=none;top=0;left=0;bottom=0;right=0;pointerEvents=1;fontSize=9;" parent="464" vertex="1">
                    <mxGeometry x="30" width="130" height="38" as="geometry">
                        <mxRectangle width="130" height="38" as="alternateBounds"/>
                    </mxGeometry>
                </mxCell>
                <mxCell id="467" value="発送済" style="shape=partialRectangle;html=1;whiteSpace=wrap;connectable=0;overflow=hidden;fillColor=none;top=0;left=0;bottom=0;right=0;pointerEvents=1;fontSize=9;" parent="464" vertex="1">
                    <mxGeometry x="160" width="60" height="38" as="geometry">
                        <mxRectangle width="60" height="38" as="alternateBounds"/>
                    </mxGeometry>
                </mxCell>
                <mxCell id="468" value="詳細" style="shape=partialRectangle;html=1;whiteSpace=wrap;connectable=0;overflow=hidden;fillColor=none;top=0;left=0;bottom=0;right=0;pointerEvents=1;fontSize=9;" parent="464" vertex="1">
                    <mxGeometry x="220" width="30" height="38" as="geometry">
                        <mxRectangle width="30" height="38" as="alternateBounds"/>
                    </mxGeometry>
                </mxCell>
                <mxCell id="469" value="取り消し申請" style="shape=partialRectangle;html=1;whiteSpace=wrap;connectable=0;overflow=hidden;fillColor=none;top=0;left=0;bottom=0;right=0;pointerEvents=1;fontSize=9;" parent="464" vertex="1">
                    <mxGeometry x="250" width="30" height="38" as="geometry">
                        <mxRectangle width="30" height="38" as="alternateBounds"/>
                    </mxGeometry>
                </mxCell>
                <mxCell id="470" value="" style="shape=partialRectangle;collapsible=0;dropTarget=0;pointerEvents=0;fillColor=none;top=0;left=0;bottom=0;right=0;points=[[0,0.5],[1,0.5]];portConstraint=eastwest;fontSize=9;" parent="457" vertex="1">
                    <mxGeometry y="106" width="280" height="38" as="geometry"/>
                </mxCell>
                <mxCell id="471" value="6/12" style="shape=partialRectangle;html=1;whiteSpace=wrap;connectable=0;overflow=hidden;fillColor=none;top=0;left=0;bottom=0;right=0;pointerEvents=1;fontSize=9;" parent="470" vertex="1">
                    <mxGeometry width="30" height="38" as="geometry">
                        <mxRectangle width="30" height="38" as="alternateBounds"/>
                    </mxGeometry>
                </mxCell>
                <mxCell id="472" value="" style="shape=partialRectangle;html=1;whiteSpace=wrap;connectable=0;overflow=hidden;fillColor=none;top=0;left=0;bottom=0;right=0;pointerEvents=1;fontSize=9;" parent="470" vertex="1">
                    <mxGeometry x="30" width="130" height="38" as="geometry">
                        <mxRectangle width="130" height="38" as="alternateBounds"/>
                    </mxGeometry>
                </mxCell>
                <mxCell id="473" value="店舗確認中" style="shape=partialRectangle;html=1;whiteSpace=wrap;connectable=0;overflow=hidden;fillColor=none;top=0;left=0;bottom=0;right=0;pointerEvents=1;fontSize=9;" parent="470" vertex="1">
                    <mxGeometry x="160" width="60" height="38" as="geometry">
                        <mxRectangle width="60" height="38" as="alternateBounds"/>
                    </mxGeometry>
                </mxCell>
                <mxCell id="474" value="詳細" style="shape=partialRectangle;html=1;whiteSpace=wrap;connectable=0;overflow=hidden;fillColor=none;top=0;left=0;bottom=0;right=0;pointerEvents=1;fontSize=9;" parent="470" vertex="1">
                    <mxGeometry x="220" width="30" height="38" as="geometry">
                        <mxRectangle width="30" height="38" as="alternateBounds"/>
                    </mxGeometry>
                </mxCell>
                <mxCell id="475" value="取り消し申請" style="shape=partialRectangle;html=1;whiteSpace=wrap;connectable=0;overflow=hidden;fillColor=none;top=0;left=0;bottom=0;right=0;pointerEvents=1;fontSize=9;" parent="470" vertex="1">
                    <mxGeometry x="250" width="30" height="38" as="geometry">
                        <mxRectangle width="30" height="38" as="alternateBounds"/>
                    </mxGeometry>
                </mxCell>
                <mxCell id="476" value="" style="shape=partialRectangle;collapsible=0;dropTarget=0;pointerEvents=0;fillColor=none;top=0;left=0;bottom=0;right=0;points=[[0,0.5],[1,0.5]];portConstraint=eastwest;fontSize=9;" parent="457" vertex="1">
                    <mxGeometry y="144" width="280" height="38" as="geometry"/>
                </mxCell>
                <mxCell id="477" value="6/13" style="shape=partialRectangle;html=1;whiteSpace=wrap;connectable=0;overflow=hidden;fillColor=none;top=0;left=0;bottom=0;right=0;pointerEvents=1;fontSize=9;" parent="476" vertex="1">
                    <mxGeometry width="30" height="38" as="geometry">
                        <mxRectangle width="30" height="38" as="alternateBounds"/>
                    </mxGeometry>
                </mxCell>
                <mxCell id="478" value="" style="shape=partialRectangle;html=1;whiteSpace=wrap;connectable=0;overflow=hidden;fillColor=none;top=0;left=0;bottom=0;right=0;pointerEvents=1;fontSize=9;" parent="476" vertex="1">
                    <mxGeometry x="30" width="130" height="38" as="geometry">
                        <mxRectangle width="130" height="38" as="alternateBounds"/>
                    </mxGeometry>
                </mxCell>
                <mxCell id="479" value="注文済" style="shape=partialRectangle;html=1;whiteSpace=wrap;connectable=0;overflow=hidden;fillColor=none;top=0;left=0;bottom=0;right=0;pointerEvents=1;fontSize=9;" parent="476" vertex="1">
                    <mxGeometry x="160" width="60" height="38" as="geometry">
                        <mxRectangle width="60" height="38" as="alternateBounds"/>
                    </mxGeometry>
                </mxCell>
                <mxCell id="480" value="詳細" style="shape=partialRectangle;html=1;whiteSpace=wrap;connectable=0;overflow=hidden;fillColor=none;top=0;left=0;bottom=0;right=0;pointerEvents=1;fontSize=9;" parent="476" vertex="1">
                    <mxGeometry x="220" width="30" height="38" as="geometry">
                        <mxRectangle width="30" height="38" as="alternateBounds"/>
                    </mxGeometry>
                </mxCell>
                <mxCell id="481" value="取り消し申請" style="shape=partialRectangle;html=1;whiteSpace=wrap;connectable=0;overflow=hidden;fillColor=none;top=0;left=0;bottom=0;right=0;pointerEvents=1;fontSize=9;" parent="476" vertex="1">
                    <mxGeometry x="250" width="30" height="38" as="geometry">
                        <mxRectangle width="30" height="38" as="alternateBounds"/>
                    </mxGeometry>
                </mxCell>
                <mxCell id="482" value="" style="shape=partialRectangle;collapsible=0;dropTarget=0;pointerEvents=0;fillColor=none;top=0;left=0;bottom=0;right=0;points=[[0,0.5],[1,0.5]];portConstraint=eastwest;fontSize=9;" parent="457" vertex="1">
                    <mxGeometry y="182" width="280" height="38" as="geometry"/>
                </mxCell>
                <mxCell id="483" value="" style="shape=partialRectangle;html=1;whiteSpace=wrap;connectable=0;overflow=hidden;fillColor=none;top=0;left=0;bottom=0;right=0;pointerEvents=1;fontSize=9;" parent="482" vertex="1">
                    <mxGeometry width="30" height="38" as="geometry">
                        <mxRectangle width="30" height="38" as="alternateBounds"/>
                    </mxGeometry>
                </mxCell>
                <mxCell id="484" value="" style="shape=partialRectangle;html=1;whiteSpace=wrap;connectable=0;overflow=hidden;fillColor=none;top=0;left=0;bottom=0;right=0;pointerEvents=1;fontSize=9;" parent="482" vertex="1">
                    <mxGeometry x="30" width="130" height="38" as="geometry">
                        <mxRectangle width="130" height="38" as="alternateBounds"/>
                    </mxGeometry>
                </mxCell>
                <mxCell id="485" value="" style="shape=partialRectangle;html=1;whiteSpace=wrap;connectable=0;overflow=hidden;fillColor=none;top=0;left=0;bottom=0;right=0;pointerEvents=1;fontSize=9;" parent="482" vertex="1">
                    <mxGeometry x="160" width="60" height="38" as="geometry">
                        <mxRectangle width="60" height="38" as="alternateBounds"/>
                    </mxGeometry>
                </mxCell>
                <mxCell id="486" value="" style="shape=partialRectangle;html=1;whiteSpace=wrap;connectable=0;overflow=hidden;fillColor=none;top=0;left=0;bottom=0;right=0;pointerEvents=1;fontSize=9;" parent="482" vertex="1">
                    <mxGeometry x="220" width="30" height="38" as="geometry">
                        <mxRectangle width="30" height="38" as="alternateBounds"/>
                    </mxGeometry>
                </mxCell>
                <mxCell id="487" value="" style="shape=partialRectangle;html=1;whiteSpace=wrap;connectable=0;overflow=hidden;fillColor=none;top=0;left=0;bottom=0;right=0;pointerEvents=1;fontSize=9;" parent="482" vertex="1">
                    <mxGeometry x="250" width="30" height="38" as="geometry">
                        <mxRectangle width="30" height="38" as="alternateBounds"/>
                    </mxGeometry>
                </mxCell>
                <mxCell id="488" value="商品A×２、商品B×３" style="shape=partialRectangle;html=1;whiteSpace=wrap;connectable=0;overflow=hidden;fillColor=none;top=0;left=0;bottom=0;right=0;pointerEvents=1;fontSize=9;" parent="1" vertex="1">
                    <mxGeometry x="430" y="665" width="130" height="38" as="geometry">
                        <mxRectangle width="130" height="38" as="alternateBounds"/>
                    </mxGeometry>
                </mxCell>
                <mxCell id="489" value="商品A×２、商品B×３" style="shape=partialRectangle;html=1;whiteSpace=wrap;connectable=0;overflow=hidden;fillColor=none;top=0;left=0;bottom=0;right=0;pointerEvents=1;fontSize=9;" parent="1" vertex="1">
                    <mxGeometry x="430" y="703" width="130" height="38" as="geometry">
                        <mxRectangle width="130" height="38" as="alternateBounds"/>
                    </mxGeometry>
                </mxCell>
                <mxCell id="501" value="注文日：6月10日" style="text;html=1;resizable=0;autosize=1;align=center;verticalAlign=middle;points=[];fillColor=none;strokeColor=none;rounded=0;fontSize=9;" parent="1" vertex="1">
                    <mxGeometry x="882.5" y="593" width="80" height="20" as="geometry"/>
                </mxCell>
                <mxCell id="502" value="商品：商品A×２、商品B×３" style="text;html=1;resizable=0;autosize=1;align=center;verticalAlign=middle;points=[];fillColor=none;strokeColor=none;rounded=0;fontSize=9;" parent="1" vertex="1">
                    <mxGeometry x="857.5" y="613" width="130" height="20" as="geometry"/>
                </mxCell>
                <mxCell id="503" value="合計：9,800円" style="text;html=1;resizable=0;autosize=1;align=center;verticalAlign=middle;points=[];fillColor=none;strokeColor=none;rounded=0;fontSize=9;" parent="1" vertex="1">
                    <mxGeometry x="887.5" y="633" width="70" height="20" as="geometry"/>
                </mxCell>
                <mxCell id="504" value="配送先：東京都千代田区（千代田区倉庫）" style="text;html=1;resizable=0;autosize=1;align=center;verticalAlign=middle;points=[];fillColor=none;strokeColor=none;rounded=0;fontSize=9;" parent="1" vertex="1">
                    <mxGeometry x="827.5" y="650" width="190" height="20" as="geometry"/>
                </mxCell>
                <mxCell id="505" value="処理状況：発送済" style="text;html=1;resizable=0;autosize=1;align=center;verticalAlign=middle;points=[];fillColor=none;strokeColor=none;rounded=0;fontSize=9;" parent="1" vertex="1">
                    <mxGeometry x="877.5" y="670" width="90" height="20" as="geometry"/>
                </mxCell>
                <mxCell id="507" value="" style="group" parent="1" vertex="1" connectable="0">
                    <mxGeometry x="1169" y="520" width="280" height="40" as="geometry"/>
                </mxCell>
                <mxCell id="508" value="" style="rounded=0;whiteSpace=wrap;html=1;fontSize=26;" parent="507" vertex="1">
                    <mxGeometry width="280" height="40" as="geometry"/>
                </mxCell>
                <mxCell id="509" value="" style="group" parent="507" vertex="1" connectable="0">
                    <mxGeometry width="280" height="40" as="geometry"/>
                </mxCell>
                <mxCell id="510" value="" style="rounded=0;whiteSpace=wrap;html=1;fontSize=26;" parent="509" vertex="1">
                    <mxGeometry width="280" height="40" as="geometry"/>
                </mxCell>
                <mxCell id="511" value="&lt;div&gt;&lt;span style=&quot;font-size: x-small&quot;&gt;logo&lt;/span&gt;&lt;/div&gt;" style="ellipse;whiteSpace=wrap;html=1;fontSize=40;align=center;" parent="509" vertex="1">
                    <mxGeometry width="50" height="40" as="geometry"/>
                </mxCell>
                <mxCell id="512" value="&lt;font style=&quot;font-size: 7px&quot;&gt;発注履歴&lt;/font&gt;" style="rounded=1;whiteSpace=wrap;html=1;fontSize=7;" parent="509" vertex="1">
                    <mxGeometry x="150" y="10" width="40" height="20" as="geometry"/>
                </mxCell>
                <mxCell id="513" value="&lt;font style=&quot;font-size: 7px;&quot;&gt;管理&lt;/font&gt;" style="rounded=1;whiteSpace=wrap;html=1;fontSize=7;" parent="509" vertex="1">
                    <mxGeometry x="190" y="10" width="40" height="20" as="geometry"/>
                </mxCell>
                <mxCell id="514" value="&lt;font style=&quot;font-size: 7px;&quot;&gt;ログアウト&lt;/font&gt;" style="rounded=1;whiteSpace=wrap;html=1;fontSize=7;" parent="509" vertex="1">
                    <mxGeometry x="230" y="10" width="40" height="20" as="geometry"/>
                </mxCell>
                <mxCell id="515" value="&lt;span style=&quot;font-size: 7px;&quot;&gt;TOP&lt;/span&gt;" style="rounded=1;whiteSpace=wrap;html=1;fontSize=7;" parent="509" vertex="1">
                    <mxGeometry x="110" y="10" width="40" height="20" as="geometry"/>
                </mxCell>
                <mxCell id="516" value="" style="whiteSpace=wrap;html=1;aspect=fixed;fontSize=26;" parent="1" vertex="1">
                    <mxGeometry x="1965" y="40" width="280" height="280" as="geometry"/>
                </mxCell>
                <mxCell id="517" value="&lt;font style=&quot;font-size: 26px&quot;&gt;受注履歴画面&lt;/font&gt;" style="text;html=1;resizable=0;autosize=1;align=center;verticalAlign=middle;points=[];fillColor=none;strokeColor=none;rounded=0;" parent="1" vertex="1">
                    <mxGeometry x="2015" y="10" width="170" height="20" as="geometry"/>
                </mxCell>
                <mxCell id="518" value="" style="group" parent="1" vertex="1" connectable="0">
                    <mxGeometry x="1965" y="40" width="280" height="40" as="geometry"/>
                </mxCell>
                <mxCell id="519" value="" style="rounded=0;whiteSpace=wrap;html=1;fontSize=26;" parent="518" vertex="1">
                    <mxGeometry width="280" height="40" as="geometry"/>
                </mxCell>
                <mxCell id="520" value="" style="group" parent="518" vertex="1" connectable="0">
                    <mxGeometry width="280" height="40" as="geometry"/>
                </mxCell>
                <mxCell id="521" value="" style="rounded=0;whiteSpace=wrap;html=1;fontSize=26;" parent="520" vertex="1">
                    <mxGeometry width="280" height="40" as="geometry"/>
                </mxCell>
                <mxCell id="522" value="&lt;div&gt;&lt;span style=&quot;font-size: x-small&quot;&gt;logo&lt;/span&gt;&lt;/div&gt;" style="ellipse;whiteSpace=wrap;html=1;fontSize=40;align=center;" parent="520" vertex="1">
                    <mxGeometry width="50" height="40" as="geometry"/>
                </mxCell>
                <mxCell id="523" value="&lt;font style=&quot;font-size: 7px&quot;&gt;発注履歴&lt;/font&gt;" style="rounded=1;whiteSpace=wrap;html=1;fontSize=7;" parent="520" vertex="1">
                    <mxGeometry x="150" y="10" width="40" height="20" as="geometry"/>
                </mxCell>
                <mxCell id="524" value="&lt;font style=&quot;font-size: 7px;&quot;&gt;管理&lt;/font&gt;" style="rounded=1;whiteSpace=wrap;html=1;fontSize=7;" parent="520" vertex="1">
                    <mxGeometry x="190" y="10" width="40" height="20" as="geometry"/>
                </mxCell>
                <mxCell id="525" value="&lt;font style=&quot;font-size: 7px;&quot;&gt;ログアウト&lt;/font&gt;" style="rounded=1;whiteSpace=wrap;html=1;fontSize=7;" parent="520" vertex="1">
                    <mxGeometry x="230" y="10" width="40" height="20" as="geometry"/>
                </mxCell>
                <mxCell id="526" value="&lt;span style=&quot;font-size: 7px;&quot;&gt;TOP&lt;/span&gt;" style="rounded=1;whiteSpace=wrap;html=1;fontSize=7;" parent="520" vertex="1">
                    <mxGeometry x="110" y="10" width="40" height="20" as="geometry"/>
                </mxCell>
                <mxCell id="527" value="&lt;font style=&quot;font-size: 10px&quot;&gt;© 2022 All Rights Reserved.&lt;/font&gt;" style="rounded=0;whiteSpace=wrap;html=1;fontSize=26;align=center;" parent="1" vertex="1">
                    <mxGeometry x="1965" y="300" width="280" height="20" as="geometry"/>
                </mxCell>
                <mxCell id="528" value="" style="whiteSpace=wrap;html=1;aspect=fixed;fontSize=26;" parent="1" vertex="1">
                    <mxGeometry x="1570" y="525" width="280" height="280" as="geometry"/>
                </mxCell>
                <mxCell id="529" value="&lt;font style=&quot;font-size: 26px&quot;&gt;・管理選択画面&lt;/font&gt;" style="text;html=1;resizable=0;autosize=1;align=center;verticalAlign=middle;points=[];fillColor=none;strokeColor=none;rounded=0;" parent="1" vertex="1">
                    <mxGeometry x="1605" y="495" width="200" height="20" as="geometry"/>
                </mxCell>
                <mxCell id="530" value="" style="group" parent="1" vertex="1" connectable="0">
                    <mxGeometry x="1570" y="525" width="280" height="40" as="geometry"/>
                </mxCell>
                <mxCell id="531" value="" style="rounded=0;whiteSpace=wrap;html=1;fontSize=26;" parent="530" vertex="1">
                    <mxGeometry width="280" height="40" as="geometry"/>
                </mxCell>
                <mxCell id="532" value="" style="group" parent="530" vertex="1" connectable="0">
                    <mxGeometry width="280" height="40" as="geometry"/>
                </mxCell>
                <mxCell id="533" value="" style="rounded=0;whiteSpace=wrap;html=1;fontSize=26;" parent="532" vertex="1">
                    <mxGeometry width="280" height="40" as="geometry"/>
                </mxCell>
                <mxCell id="534" value="&lt;div&gt;&lt;span style=&quot;font-size: x-small&quot;&gt;logo&lt;/span&gt;&lt;/div&gt;" style="ellipse;whiteSpace=wrap;html=1;fontSize=40;align=center;" parent="532" vertex="1">
                    <mxGeometry width="50" height="40" as="geometry"/>
                </mxCell>
                <mxCell id="535" value="&lt;font style=&quot;font-size: 7px&quot;&gt;発注履歴&lt;/font&gt;" style="rounded=1;whiteSpace=wrap;html=1;fontSize=7;" parent="532" vertex="1">
                    <mxGeometry x="150" y="10" width="40" height="20" as="geometry"/>
                </mxCell>
                <mxCell id="536" value="&lt;font style=&quot;font-size: 7px;&quot;&gt;管理&lt;/font&gt;" style="rounded=1;whiteSpace=wrap;html=1;fontSize=7;" parent="532" vertex="1">
                    <mxGeometry x="190" y="10" width="40" height="20" as="geometry"/>
                </mxCell>
                <mxCell id="537" value="&lt;font style=&quot;font-size: 7px;&quot;&gt;ログアウト&lt;/font&gt;" style="rounded=1;whiteSpace=wrap;html=1;fontSize=7;" parent="532" vertex="1">
                    <mxGeometry x="230" y="10" width="40" height="20" as="geometry"/>
                </mxCell>
                <mxCell id="538" value="&lt;span style=&quot;font-size: 7px;&quot;&gt;TOP&lt;/span&gt;" style="rounded=1;whiteSpace=wrap;html=1;fontSize=7;" parent="532" vertex="1">
                    <mxGeometry x="110" y="10" width="40" height="20" as="geometry"/>
                </mxCell>
                <mxCell id="539" value="&lt;font style=&quot;font-size: 10px&quot;&gt;© 2022 All Rights Reserved.&lt;/font&gt;" style="rounded=0;whiteSpace=wrap;html=1;fontSize=26;align=center;" parent="1" vertex="1">
                    <mxGeometry x="1570" y="785" width="280" height="20" as="geometry"/>
                </mxCell>
                <mxCell id="540" value="" style="whiteSpace=wrap;html=1;aspect=fixed;fontSize=26;" parent="1" vertex="1">
                    <mxGeometry x="1967.5" y="525" width="280" height="280" as="geometry"/>
                </mxCell>
                <mxCell id="541" value="&lt;font style=&quot;font-size: 26px&quot;&gt;受注詳細画面&lt;/font&gt;" style="text;html=1;resizable=0;autosize=1;align=center;verticalAlign=middle;points=[];fillColor=none;strokeColor=none;rounded=0;" parent="1" vertex="1">
                    <mxGeometry x="2017.5" y="495" width="170" height="20" as="geometry"/>
                </mxCell>
                <mxCell id="542" value="" style="group" parent="1" vertex="1" connectable="0">
                    <mxGeometry x="1967.5" y="525" width="280" height="40" as="geometry"/>
                </mxCell>
                <mxCell id="543" value="" style="rounded=0;whiteSpace=wrap;html=1;fontSize=26;" parent="542" vertex="1">
                    <mxGeometry width="280" height="40" as="geometry"/>
                </mxCell>
                <mxCell id="544" value="" style="group" parent="542" vertex="1" connectable="0">
                    <mxGeometry width="280" height="40" as="geometry"/>
                </mxCell>
                <mxCell id="545" value="" style="rounded=0;whiteSpace=wrap;html=1;fontSize=26;" parent="544" vertex="1">
                    <mxGeometry width="280" height="40" as="geometry"/>
                </mxCell>
                <mxCell id="546" value="&lt;div&gt;&lt;span style=&quot;font-size: x-small&quot;&gt;logo&lt;/span&gt;&lt;/div&gt;" style="ellipse;whiteSpace=wrap;html=1;fontSize=40;align=center;" parent="544" vertex="1">
                    <mxGeometry width="50" height="40" as="geometry"/>
                </mxCell>
                <mxCell id="547" value="&lt;font style=&quot;font-size: 7px&quot;&gt;発注履歴&lt;/font&gt;" style="rounded=1;whiteSpace=wrap;html=1;fontSize=7;" parent="544" vertex="1">
                    <mxGeometry x="150" y="10" width="40" height="20" as="geometry"/>
                </mxCell>
                <mxCell id="548" value="&lt;font style=&quot;font-size: 7px;&quot;&gt;管理&lt;/font&gt;" style="rounded=1;whiteSpace=wrap;html=1;fontSize=7;" parent="544" vertex="1">
                    <mxGeometry x="190" y="10" width="40" height="20" as="geometry"/>
                </mxCell>
                <mxCell id="549" value="&lt;font style=&quot;font-size: 7px;&quot;&gt;ログアウト&lt;/font&gt;" style="rounded=1;whiteSpace=wrap;html=1;fontSize=7;" parent="544" vertex="1">
                    <mxGeometry x="230" y="10" width="40" height="20" as="geometry"/>
                </mxCell>
                <mxCell id="550" value="&lt;span style=&quot;font-size: 7px;&quot;&gt;TOP&lt;/span&gt;" style="rounded=1;whiteSpace=wrap;html=1;fontSize=7;" parent="544" vertex="1">
                    <mxGeometry x="110" y="10" width="40" height="20" as="geometry"/>
                </mxCell>
                <mxCell id="551" value="&lt;font style=&quot;font-size: 10px&quot;&gt;© 2022 All Rights Reserved.&lt;/font&gt;" style="rounded=0;whiteSpace=wrap;html=1;fontSize=26;align=center;" parent="1" vertex="1">
                    <mxGeometry x="1967.5" y="785" width="280" height="20" as="geometry"/>
                </mxCell>
                <mxCell id="552" value="" style="whiteSpace=wrap;html=1;aspect=fixed;fontSize=26;" parent="1" vertex="1">
                    <mxGeometry x="2335" y="43.5" width="280" height="280" as="geometry"/>
                </mxCell>
                <mxCell id="553" value="&lt;font style=&quot;font-size: 26px&quot;&gt;商品管理画面&lt;/font&gt;" style="text;html=1;resizable=0;autosize=1;align=center;verticalAlign=middle;points=[];fillColor=none;strokeColor=none;rounded=0;" parent="1" vertex="1">
                    <mxGeometry x="2385" y="13.5" width="170" height="20" as="geometry"/>
                </mxCell>
                <mxCell id="554" value="" style="group" parent="1" vertex="1" connectable="0">
                    <mxGeometry x="2335" y="43.5" width="280" height="40" as="geometry"/>
                </mxCell>
                <mxCell id="555" value="" style="rounded=0;whiteSpace=wrap;html=1;fontSize=26;" parent="554" vertex="1">
                    <mxGeometry width="280" height="40" as="geometry"/>
                </mxCell>
                <mxCell id="556" value="" style="group" parent="554" vertex="1" connectable="0">
                    <mxGeometry width="280" height="40" as="geometry"/>
                </mxCell>
                <mxCell id="557" value="" style="rounded=0;whiteSpace=wrap;html=1;fontSize=26;" parent="556" vertex="1">
                    <mxGeometry width="280" height="40" as="geometry"/>
                </mxCell>
                <mxCell id="558" value="&lt;div&gt;&lt;span style=&quot;font-size: x-small&quot;&gt;logo&lt;/span&gt;&lt;/div&gt;" style="ellipse;whiteSpace=wrap;html=1;fontSize=40;align=center;" parent="556" vertex="1">
                    <mxGeometry width="50" height="40" as="geometry"/>
                </mxCell>
                <mxCell id="559" value="&lt;font style=&quot;font-size: 7px&quot;&gt;発注履歴&lt;/font&gt;" style="rounded=1;whiteSpace=wrap;html=1;fontSize=7;" parent="556" vertex="1">
                    <mxGeometry x="150" y="10" width="40" height="20" as="geometry"/>
                </mxCell>
                <mxCell id="560" value="&lt;font style=&quot;font-size: 7px;&quot;&gt;管理&lt;/font&gt;" style="rounded=1;whiteSpace=wrap;html=1;fontSize=7;" parent="556" vertex="1">
                    <mxGeometry x="190" y="10" width="40" height="20" as="geometry"/>
                </mxCell>
                <mxCell id="561" value="&lt;font style=&quot;font-size: 7px;&quot;&gt;ログアウト&lt;/font&gt;" style="rounded=1;whiteSpace=wrap;html=1;fontSize=7;" parent="556" vertex="1">
                    <mxGeometry x="230" y="10" width="40" height="20" as="geometry"/>
                </mxCell>
                <mxCell id="562" value="&lt;span style=&quot;font-size: 7px;&quot;&gt;TOP&lt;/span&gt;" style="rounded=1;whiteSpace=wrap;html=1;fontSize=7;" parent="556" vertex="1">
                    <mxGeometry x="110" y="10" width="40" height="20" as="geometry"/>
                </mxCell>
                <mxCell id="563" value="&lt;font style=&quot;font-size: 10px&quot;&gt;© 2022 All Rights Reserved.&lt;/font&gt;" style="rounded=0;whiteSpace=wrap;html=1;fontSize=26;align=center;" parent="1" vertex="1">
                    <mxGeometry x="2335" y="303.5" width="280" height="20" as="geometry"/>
                </mxCell>
                <mxCell id="564" value="受注履歴&lt;span style=&quot;color: rgba(0 , 0 , 0 , 0) ; font-family: monospace ; font-size: 0px&quot;&gt;%3CmxGraphModel%3E%3Croot%3E%3CmxCell%20id%3D%220%22%2F%3E%3CmxCell%20id%3D%221%22%20parent%3D%220%22%2F%3E%3CmxCell%20id%3D%222%22%20value%3D%22%22%20style%3D%22whiteSpace%3Dwrap%3Bhtml%3D1%3Baspect%3Dfixed%3BfontSize%3D26%3B%22%20vertex%3D%221%22%20parent%3D%221%22%3E%3CmxGeometry%20x%3D%221967.5%22%20y%3D%22525%22%20width%3D%22280%22%20height%3D%22280%22%20as%3D%22geometry%22%2F%3E%3C%2FmxCell%3E%3CmxCell%20id%3D%223%22%20value%3D%22%26lt%3Bfont%20style%3D%26quot%3Bfont-size%3A%2026px%26quot%3B%26gt%3B%E3%83%BB%E3%82%A2%E3%82%AB%E3%82%A6%E3%83%B3%E3%83%88%E7%B7%A8%E9%9B%86%E7%94%BB%E9%9D%A2%26lt%3B%2Ffont%26gt%3B%22%20style%3D%22text%3Bhtml%3D1%3Bresizable%3D0%3Bautosize%3D1%3Balign%3Dcenter%3BverticalAlign%3Dmiddle%3Bpoints%3D%5B%5D%3BfillColor%3Dnone%3BstrokeColor%3Dnone%3Brounded%3D0%3B%22%20vertex%3D%221%22%20parent%3D%221%22%3E%3CmxGeometry%20x%3D%221962.5%22%20y%3D%22495%22%20width%3D%22280%22%20height%3D%2220%22%20as%3D%22geometry%22%2F%3E%3C%2FmxCell%3E%3CmxCell%20id%3D%224%22%20value%3D%22%22%20style%3D%22group%22%20vertex%3D%221%22%20connectable%3D%220%22%20parent%3D%221%22%3E%3CmxGeometry%20x%3D%221967.5%22%20y%3D%22525%22%20width%3D%22280%22%20height%3D%2240%22%20as%3D%22geometry%22%2F%3E%3C%2FmxCell%3E%3CmxCell%20id%3D%225%22%20value%3D%22%22%20style%3D%22rounded%3D0%3BwhiteSpace%3Dwrap%3Bhtml%3D1%3BfontSize%3D26%3B%22%20vertex%3D%221%22%20parent%3D%224%22%3E%3CmxGeometry%20width%3D%22280%22%20height%3D%2240%22%20as%3D%22geometry%22%2F%3E%3C%2FmxCell%3E%3CmxCell%20id%3D%226%22%20value%3D%22%22%20style%3D%22group%22%20vertex%3D%221%22%20connectable%3D%220%22%20parent%3D%224%22%3E%3CmxGeometry%20width%3D%22280%22%20height%3D%2240%22%20as%3D%22geometry%22%2F%3E%3C%2FmxCell%3E%3CmxCell%20id%3D%227%22%20value%3D%22%22%20style%3D%22rounded%3D0%3BwhiteSpace%3Dwrap%3Bhtml%3D1%3BfontSize%3D26%3B%22%20vertex%3D%221%22%20parent%3D%226%22%3E%3CmxGeometry%20width%3D%22280%22%20height%3D%2240%22%20as%3D%22geometry%22%2F%3E%3C%2FmxCell%3E%3CmxCell%20id%3D%228%22%20value%3D%22%26lt%3Bdiv%26gt%3B%26lt%3Bspan%20style%3D%26quot%3Bfont-size%3A%20x-small%26quot%3B%26gt%3Blogo%26lt%3B%2Fspan%26gt%3B%26lt%3B%2Fdiv%26gt%3B%22%20style%3D%22ellipse%3BwhiteSpace%3Dwrap%3Bhtml%3D1%3BfontSize%3D40%3Balign%3Dcenter%3B%22%20vertex%3D%221%22%20parent%3D%226%22%3E%3CmxGeometry%20width%3D%2250%22%20height%3D%2240%22%20as%3D%22geometry%22%2F%3E%3C%2FmxCell%3E%3CmxCell%20id%3D%229%22%20value%3D%22%26lt%3Bfont%20style%3D%26quot%3Bfont-size%3A%207px%26quot%3B%26gt%3B%E7%99%BA%E6%B3%A8%E5%B1%A5%E6%AD%B4%26lt%3B%2Ffont%26gt%3B%22%20style%3D%22rounded%3D1%3BwhiteSpace%3Dwrap%3Bhtml%3D1%3BfontSize%3D7%3B%22%20vertex%3D%221%22%20parent%3D%226%22%3E%3CmxGeometry%20x%3D%22150%22%20y%3D%2210%22%20width%3D%2240%22%20height%3D%2220%22%20as%3D%22geometry%22%2F%3E%3C%2FmxCell%3E%3CmxCell%20id%3D%2210%22%20value%3D%22%26lt%3Bfont%20style%3D%26quot%3Bfont-size%3A%207px%3B%26quot%3B%26gt%3B%E7%AE%A1%E7%90%86%26lt%3B%2Ffont%26gt%3B%22%20style%3D%22rounded%3D1%3BwhiteSpace%3Dwrap%3Bhtml%3D1%3BfontSize%3D7%3B%22%20vertex%3D%221%22%20parent%3D%226%22%3E%3CmxGeometry%20x%3D%22190%22%20y%3D%2210%22%20width%3D%2240%22%20height%3D%2220%22%20as%3D%22geometry%22%2F%3E%3C%2FmxCell%3E%3CmxCell%20id%3D%2211%22%20value%3D%22%26lt%3Bfont%20style%3D%26quot%3Bfont-size%3A%207px%3B%26quot%3B%26gt%3B%E3%83%AD%E3%82%B0%E3%82%A2%E3%82%A6%E3%83%88%26lt%3B%2Ffont%26gt%3B%22%20style%3D%22rounded%3D1%3BwhiteSpace%3Dwrap%3Bhtml%3D1%3BfontSize%3D7%3B%22%20vertex%3D%221%22%20parent%3D%226%22%3E%3CmxGeometry%20x%3D%22230%22%20y%3D%2210%22%20width%3D%2240%22%20height%3D%2220%22%20as%3D%22geometry%22%2F%3E%3C%2FmxCell%3E%3CmxCell%20id%3D%2212%22%20value%3D%22%26lt%3Bspan%20style%3D%26quot%3Bfont-size%3A%207px%3B%26quot%3B%26gt%3BTOP%26lt%3B%2Fspan%26gt%3B%22%20style%3D%22rounded%3D1%3BwhiteSpace%3Dwrap%3Bhtml%3D1%3BfontSize%3D7%3B%22%20vertex%3D%221%22%20parent%3D%226%22%3E%3CmxGeometry%20x%3D%22110%22%20y%3D%2210%22%20width%3D%2240%22%20height%3D%2220%22%20as%3D%22geometry%22%2F%3E%3C%2FmxCell%3E%3CmxCell%20id%3D%2213%22%20value%3D%22%26lt%3Bfont%20style%3D%26quot%3Bfont-size%3A%2010px%26quot%3B%26gt%3B%C2%A9%202022%20All%20Rights%20Reserved.%26lt%3B%2Ffont%26gt%3B%22%20style%3D%22rounded%3D0%3BwhiteSpace%3Dwrap%3Bhtml%3D1%3BfontSize%3D26%3Balign%3Dcenter%3B%22%20vertex%3D%221%22%20parent%3D%221%22%3E%3CmxGeometry%20x%3D%221967.5%22%20y%3D%22785%22%20width%3D%22280%22%20height%3D%2220%22%20as%3D%22geometry%22%2F%3E%3C%2FmxCell%3E%3C%2Froot%3E%3C%2FmxGraphModel%3E&lt;/span&gt;&lt;span style=&quot;color: rgba(0 , 0 , 0 , 0) ; font-family: monospace ; font-size: 0px&quot;&gt;%3CmxGraphModel%3E%3Croot%3E%3CmxCell%20id%3D%220%22%2F%3E%3CmxCell%20id%3D%221%22%20parent%3D%220%22%2F%3E%3CmxCell%20id%3D%222%22%20value%3D%22%22%20style%3D%22whiteSpace%3Dwrap%3Bhtml%3D1%3Baspect%3Dfixed%3BfontSize%3D26%3B%22%20vertex%3D%221%22%20parent%3D%221%22%3E%3CmxGeometry%20x%3D%221967.5%22%20y%3D%22525%22%20width%3D%22280%22%20height%3D%22280%22%20as%3D%22geometry%22%2F%3E%3C%2FmxCell%3E%3CmxCell%20id%3D%223%22%20value%3D%22%26lt%3Bfont%20style%3D%26quot%3Bfont-size%3A%2026px%26quot%3B%26gt%3B%E3%83%BB%E3%82%A2%E3%82%AB%E3%82%A6%E3%83%B3%E3%83%88%E7%B7%A8%E9%9B%86%E7%94%BB%E9%9D%A2%26lt%3B%2Ffont%26gt%3B%22%20style%3D%22text%3Bhtml%3D1%3Bresizable%3D0%3Bautosize%3D1%3Balign%3Dcenter%3BverticalAlign%3Dmiddle%3Bpoints%3D%5B%5D%3BfillColor%3Dnone%3BstrokeColor%3Dnone%3Brounded%3D0%3B%22%20vertex%3D%221%22%20parent%3D%221%22%3E%3CmxGeometry%20x%3D%221962.5%22%20y%3D%22495%22%20width%3D%22280%22%20height%3D%2220%22%20as%3D%22geometry%22%2F%3E%3C%2FmxCell%3E%3CmxCell%20id%3D%224%22%20value%3D%22%22%20style%3D%22group%22%20vertex%3D%221%22%20connectable%3D%220%22%20parent%3D%221%22%3E%3CmxGeometry%20x%3D%221967.5%22%20y%3D%22525%22%20width%3D%22280%22%20height%3D%2240%22%20as%3D%22geometry%22%2F%3E%3C%2FmxCell%3E%3CmxCell%20id%3D%225%22%20value%3D%22%22%20style%3D%22rounded%3D0%3BwhiteSpace%3Dwrap%3Bhtml%3D1%3BfontSize%3D26%3B%22%20vertex%3D%221%22%20parent%3D%224%22%3E%3CmxGeometry%20width%3D%22280%22%20height%3D%2240%22%20as%3D%22geometry%22%2F%3E%3C%2FmxCell%3E%3CmxCell%20id%3D%226%22%20value%3D%22%22%20style%3D%22group%22%20vertex%3D%221%22%20connectable%3D%220%22%20parent%3D%224%22%3E%3CmxGeometry%20width%3D%22280%22%20height%3D%2240%22%20as%3D%22geometry%22%2F%3E%3C%2FmxCell%3E%3CmxCell%20id%3D%227%22%20value%3D%22%22%20style%3D%22rounded%3D0%3BwhiteSpace%3Dwrap%3Bhtml%3D1%3BfontSize%3D26%3B%22%20vertex%3D%221%22%20parent%3D%226%22%3E%3CmxGeometry%20width%3D%22280%22%20height%3D%2240%22%20as%3D%22geometry%22%2F%3E%3C%2FmxCell%3E%3CmxCell%20id%3D%228%22%20value%3D%22%26lt%3Bdiv%26gt%3B%26lt%3Bspan%20style%3D%26quot%3Bfont-size%3A%20x-small%26quot%3B%26gt%3Blogo%26lt%3B%2Fspan%26gt%3B%26lt%3B%2Fdiv%26gt%3B%22%20style%3D%22ellipse%3BwhiteSpace%3Dwrap%3Bhtml%3D1%3BfontSize%3D40%3Balign%3Dcenter%3B%22%20vertex%3D%221%22%20parent%3D%226%22%3E%3CmxGeometry%20width%3D%2250%22%20height%3D%2240%22%20as%3D%22geometry%22%2F%3E%3C%2FmxCell%3E%3CmxCell%20id%3D%229%22%20value%3D%22%26lt%3Bfont%20style%3D%26quot%3Bfont-size%3A%207px%26quot%3B%26gt%3B%E7%99%BA%E6%B3%A8%E5%B1%A5%E6%AD%B4%26lt%3B%2Ffont%26gt%3B%22%20style%3D%22rounded%3D1%3BwhiteSpace%3Dwrap%3Bhtml%3D1%3BfontSize%3D7%3B%22%20vertex%3D%221%22%20parent%3D%226%22%3E%3CmxGeometry%20x%3D%22150%22%20y%3D%2210%22%20width%3D%2240%22%20height%3D%2220%22%20as%3D%22geometry%22%2F%3E%3C%2FmxCell%3E%3CmxCell%20id%3D%2210%22%20value%3D%22%26lt%3Bfont%20style%3D%26quot%3Bfont-size%3A%207px%3B%26quot%3B%26gt%3B%E7%AE%A1%E7%90%86%26lt%3B%2Ffont%26gt%3B%22%20style%3D%22rounded%3D1%3BwhiteSpace%3Dwrap%3Bhtml%3D1%3BfontSize%3D7%3B%22%20vertex%3D%221%22%20parent%3D%226%22%3E%3CmxGeometry%20x%3D%22190%22%20y%3D%2210%22%20width%3D%2240%22%20height%3D%2220%22%20as%3D%22geometry%22%2F%3E%3C%2FmxCell%3E%3CmxCell%20id%3D%2211%22%20value%3D%22%26lt%3Bfont%20style%3D%26quot%3Bfont-size%3A%207px%3B%26quot%3B%26gt%3B%E3%83%AD%E3%82%B0%E3%82%A2%E3%82%A6%E3%83%88%26lt%3B%2Ffont%26gt%3B%22%20style%3D%22rounded%3D1%3BwhiteSpace%3Dwrap%3Bhtml%3D1%3BfontSize%3D7%3B%22%20vertex%3D%221%22%20parent%3D%226%22%3E%3CmxGeometry%20x%3D%22230%22%20y%3D%2210%22%20width%3D%2240%22%20height%3D%2220%22%20as%3D%22geometry%22%2F%3E%3C%2FmxCell%3E%3CmxCell%20id%3D%2212%22%20value%3D%22%26lt%3Bspan%20style%3D%26quot%3Bfont-size%3A%207px%3B%26quot%3B%26gt%3BTOP%26lt%3B%2Fspan%26gt%3B%22%20style%3D%22rounded%3D1%3BwhiteSpace%3Dwrap%3Bhtml%3D1%3BfontSize%3D7%3B%22%20vertex%3D%221%22%20parent%3D%226%22%3E%3CmxGeometry%20x%3D%22110%22%20y%3D%2210%22%20width%3D%2240%22%20height%3D%2220%22%20as%3D%22geometry%22%2F%3E%3C%2FmxCell%3E%3CmxCell%20id%3D%2213%22%20value%3D%22%26lt%3Bfont%20style%3D%26quot%3Bfont-size%3A%2010px%26quot%3B%26gt%3B%C2%A9%202022%20All%20Rights%20Reserved.%26lt%3B%2Ffont%26gt%3B%22%20style%3D%22rounded%3D0%3BwhiteSpace%3Dwrap%3Bhtml%3D1%3BfontSize%3D26%3Balign%3Dcenter%3B%22%20vertex%3D%221%22%20parent%3D%221%22%3E%3CmxGeometry%20x%3D%221967.5%22%20y%3D%22785%22%20width%3D%22280%22%20height%3D%2220%22%20as%3D%22geometry%22%2F%3E%3C%2FmxCell%3E%3C%2Froot%3E%3C%2FmxGraphModel%3E&lt;/span&gt;" style="rounded=1;whiteSpace=wrap;html=1;" parent="1" vertex="1">
                    <mxGeometry x="1587.5" y="585" width="240" height="30" as="geometry"/>
                </mxCell>
                <mxCell id="565" value="商品管理" style="rounded=1;whiteSpace=wrap;html=1;" parent="1" vertex="1">
                    <mxGeometry x="1587.5" y="628" width="240" height="30" as="geometry"/>
                </mxCell>
                <mxCell id="566" value="アカウント" style="rounded=1;whiteSpace=wrap;html=1;" parent="1" vertex="1">
                    <mxGeometry x="1587.5" y="673" width="240" height="30" as="geometry"/>
                </mxCell>
                <mxCell id="567" value="発送待ち" style="shape=table;startSize=30;container=1;collapsible=0;childLayout=tableLayout;fontSize=9;" parent="1" vertex="1">
                    <mxGeometry x="1980" y="80" width="250" height="110" as="geometry"/>
                </mxCell>
                <mxCell id="568" value="" style="shape=partialRectangle;collapsible=0;dropTarget=0;pointerEvents=0;fillColor=none;top=0;left=0;bottom=0;right=0;points=[[0,0.5],[1,0.5]];portConstraint=eastwest;fontSize=9;" parent="567" vertex="1">
                    <mxGeometry y="30" width="250" height="16" as="geometry"/>
                </mxCell>
                <mxCell id="569" value="注文日" style="shape=partialRectangle;html=1;whiteSpace=wrap;connectable=0;overflow=hidden;fillColor=none;top=0;left=0;bottom=0;right=0;pointerEvents=1;fontSize=9;" parent="568" vertex="1">
                    <mxGeometry width="30" height="16" as="geometry">
                        <mxRectangle width="30" height="16" as="alternateBounds"/>
                    </mxGeometry>
                </mxCell>
                <mxCell id="570" value="注文品" style="shape=partialRectangle;html=1;whiteSpace=wrap;connectable=0;overflow=hidden;fillColor=none;top=0;left=0;bottom=0;right=0;pointerEvents=1;fontSize=9;" parent="568" vertex="1">
                    <mxGeometry x="30" width="130" height="16" as="geometry">
                        <mxRectangle width="130" height="16" as="alternateBounds"/>
                    </mxGeometry>
                </mxCell>
                <mxCell id="571" value="発注元" style="shape=partialRectangle;html=1;whiteSpace=wrap;connectable=0;overflow=hidden;fillColor=none;top=0;left=0;bottom=0;right=0;pointerEvents=1;fontSize=9;" parent="568" vertex="1">
                    <mxGeometry x="160" width="60" height="16" as="geometry">
                        <mxRectangle width="60" height="16" as="alternateBounds"/>
                    </mxGeometry>
                </mxCell>
                <mxCell id="572" value="詳細" style="shape=partialRectangle;html=1;whiteSpace=wrap;connectable=0;overflow=hidden;fillColor=none;top=0;left=0;bottom=0;right=0;pointerEvents=1;fontSize=9;" parent="568" vertex="1">
                    <mxGeometry x="220" width="30" height="16" as="geometry">
                        <mxRectangle width="30" height="16" as="alternateBounds"/>
                    </mxGeometry>
                </mxCell>
                <mxCell id="574" value="" style="shape=partialRectangle;collapsible=0;dropTarget=0;pointerEvents=0;fillColor=none;top=0;left=0;bottom=0;right=0;points=[[0,0.5],[1,0.5]];portConstraint=eastwest;fontSize=9;" parent="567" vertex="1">
                    <mxGeometry y="46" width="250" height="16" as="geometry"/>
                </mxCell>
                <mxCell id="575" value="6/10" style="shape=partialRectangle;html=1;whiteSpace=wrap;connectable=0;overflow=hidden;fillColor=none;top=0;left=0;bottom=0;right=0;pointerEvents=1;fontSize=9;" parent="574" vertex="1">
                    <mxGeometry width="30" height="16" as="geometry">
                        <mxRectangle width="30" height="16" as="alternateBounds"/>
                    </mxGeometry>
                </mxCell>
                <mxCell id="576" value="商品A×２、商品B×３" style="shape=partialRectangle;html=1;whiteSpace=wrap;connectable=0;overflow=hidden;fillColor=none;top=0;left=0;bottom=0;right=0;pointerEvents=1;fontSize=9;" parent="574" vertex="1">
                    <mxGeometry x="30" width="130" height="16" as="geometry">
                        <mxRectangle width="130" height="16" as="alternateBounds"/>
                    </mxGeometry>
                </mxCell>
                <mxCell id="577" value="○○社" style="shape=partialRectangle;html=1;whiteSpace=wrap;connectable=0;overflow=hidden;fillColor=none;top=0;left=0;bottom=0;right=0;pointerEvents=1;fontSize=9;" parent="574" vertex="1">
                    <mxGeometry x="160" width="60" height="16" as="geometry">
                        <mxRectangle width="60" height="16" as="alternateBounds"/>
                    </mxGeometry>
                </mxCell>
                <mxCell id="578" value="詳細" style="shape=partialRectangle;html=1;whiteSpace=wrap;connectable=0;overflow=hidden;fillColor=none;top=0;left=0;bottom=0;right=0;pointerEvents=1;fontSize=9;" parent="574" vertex="1">
                    <mxGeometry x="220" width="30" height="16" as="geometry">
                        <mxRectangle width="30" height="16" as="alternateBounds"/>
                    </mxGeometry>
                </mxCell>
                <mxCell id="580" value="" style="shape=partialRectangle;collapsible=0;dropTarget=0;pointerEvents=0;fillColor=none;top=0;left=0;bottom=0;right=0;points=[[0,0.5],[1,0.5]];portConstraint=eastwest;fontSize=9;" parent="567" vertex="1">
                    <mxGeometry y="62" width="250" height="16" as="geometry"/>
                </mxCell>
                <mxCell id="581" value="6/12" style="shape=partialRectangle;html=1;whiteSpace=wrap;connectable=0;overflow=hidden;fillColor=none;top=0;left=0;bottom=0;right=0;pointerEvents=1;fontSize=9;" parent="580" vertex="1">
                    <mxGeometry width="30" height="16" as="geometry">
                        <mxRectangle width="30" height="16" as="alternateBounds"/>
                    </mxGeometry>
                </mxCell>
                <mxCell id="582" value="" style="shape=partialRectangle;html=1;whiteSpace=wrap;connectable=0;overflow=hidden;fillColor=none;top=0;left=0;bottom=0;right=0;pointerEvents=1;fontSize=9;" parent="580" vertex="1">
                    <mxGeometry x="30" width="130" height="16" as="geometry">
                        <mxRectangle width="130" height="16" as="alternateBounds"/>
                    </mxGeometry>
                </mxCell>
                <mxCell id="583" value="△△社" style="shape=partialRectangle;html=1;whiteSpace=wrap;connectable=0;overflow=hidden;fillColor=none;top=0;left=0;bottom=0;right=0;pointerEvents=1;fontSize=9;" parent="580" vertex="1">
                    <mxGeometry x="160" width="60" height="16" as="geometry">
                        <mxRectangle width="60" height="16" as="alternateBounds"/>
                    </mxGeometry>
                </mxCell>
                <mxCell id="584" value="詳細" style="shape=partialRectangle;html=1;whiteSpace=wrap;connectable=0;overflow=hidden;fillColor=none;top=0;left=0;bottom=0;right=0;pointerEvents=1;fontSize=9;" parent="580" vertex="1">
                    <mxGeometry x="220" width="30" height="16" as="geometry">
                        <mxRectangle width="30" height="16" as="alternateBounds"/>
                    </mxGeometry>
                </mxCell>
                <mxCell id="586" value="" style="shape=partialRectangle;collapsible=0;dropTarget=0;pointerEvents=0;fillColor=none;top=0;left=0;bottom=0;right=0;points=[[0,0.5],[1,0.5]];portConstraint=eastwest;fontSize=9;" parent="567" vertex="1">
                    <mxGeometry y="78" width="250" height="16" as="geometry"/>
                </mxCell>
                <mxCell id="587" value="6/13" style="shape=partialRectangle;html=1;whiteSpace=wrap;connectable=0;overflow=hidden;fillColor=none;top=0;left=0;bottom=0;right=0;pointerEvents=1;fontSize=9;" parent="586" vertex="1">
                    <mxGeometry width="30" height="16" as="geometry">
                        <mxRectangle width="30" height="16" as="alternateBounds"/>
                    </mxGeometry>
                </mxCell>
                <mxCell id="588" value="" style="shape=partialRectangle;html=1;whiteSpace=wrap;connectable=0;overflow=hidden;fillColor=none;top=0;left=0;bottom=0;right=0;pointerEvents=1;fontSize=9;" parent="586" vertex="1">
                    <mxGeometry x="30" width="130" height="16" as="geometry">
                        <mxRectangle width="130" height="16" as="alternateBounds"/>
                    </mxGeometry>
                </mxCell>
                <mxCell id="589" value="××社" style="shape=partialRectangle;html=1;whiteSpace=wrap;connectable=0;overflow=hidden;fillColor=none;top=0;left=0;bottom=0;right=0;pointerEvents=1;fontSize=9;" parent="586" vertex="1">
                    <mxGeometry x="160" width="60" height="16" as="geometry">
                        <mxRectangle width="60" height="16" as="alternateBounds"/>
                    </mxGeometry>
                </mxCell>
                <mxCell id="590" value="詳細" style="shape=partialRectangle;html=1;whiteSpace=wrap;connectable=0;overflow=hidden;fillColor=none;top=0;left=0;bottom=0;right=0;pointerEvents=1;fontSize=9;" parent="586" vertex="1">
                    <mxGeometry x="220" width="30" height="16" as="geometry">
                        <mxRectangle width="30" height="16" as="alternateBounds"/>
                    </mxGeometry>
                </mxCell>
                <mxCell id="592" value="" style="shape=partialRectangle;collapsible=0;dropTarget=0;pointerEvents=0;fillColor=none;top=0;left=0;bottom=0;right=0;points=[[0,0.5],[1,0.5]];portConstraint=eastwest;fontSize=9;" parent="567" vertex="1">
                    <mxGeometry y="94" width="250" height="16" as="geometry"/>
                </mxCell>
                <mxCell id="593" value="" style="shape=partialRectangle;html=1;whiteSpace=wrap;connectable=0;overflow=hidden;fillColor=none;top=0;left=0;bottom=0;right=0;pointerEvents=1;fontSize=9;" parent="592" vertex="1">
                    <mxGeometry width="30" height="16" as="geometry">
                        <mxRectangle width="30" height="16" as="alternateBounds"/>
                    </mxGeometry>
                </mxCell>
                <mxCell id="594" value="" style="shape=partialRectangle;html=1;whiteSpace=wrap;connectable=0;overflow=hidden;fillColor=none;top=0;left=0;bottom=0;right=0;pointerEvents=1;fontSize=9;" parent="592" vertex="1">
                    <mxGeometry x="30" width="130" height="16" as="geometry">
                        <mxRectangle width="130" height="16" as="alternateBounds"/>
                    </mxGeometry>
                </mxCell>
                <mxCell id="595" value="" style="shape=partialRectangle;html=1;whiteSpace=wrap;connectable=0;overflow=hidden;fillColor=none;top=0;left=0;bottom=0;right=0;pointerEvents=1;fontSize=9;" parent="592" vertex="1">
                    <mxGeometry x="160" width="60" height="16" as="geometry">
                        <mxRectangle width="60" height="16" as="alternateBounds"/>
                    </mxGeometry>
                </mxCell>
                <mxCell id="596" value="" style="shape=partialRectangle;html=1;whiteSpace=wrap;connectable=0;overflow=hidden;fillColor=none;top=0;left=0;bottom=0;right=0;pointerEvents=1;fontSize=9;" parent="592" vertex="1">
                    <mxGeometry x="220" width="30" height="16" as="geometry">
                        <mxRectangle width="30" height="16" as="alternateBounds"/>
                    </mxGeometry>
                </mxCell>
                <mxCell id="599" value="発送済" style="shape=table;startSize=20;container=1;collapsible=0;childLayout=tableLayout;fontSize=9;" parent="1" vertex="1">
                    <mxGeometry x="1980" y="190" width="250" height="84" as="geometry"/>
                </mxCell>
                <mxCell id="600" value="" style="shape=partialRectangle;collapsible=0;dropTarget=0;pointerEvents=0;fillColor=none;top=0;left=0;bottom=0;right=0;points=[[0,0.5],[1,0.5]];portConstraint=eastwest;fontSize=9;" parent="599" vertex="1">
                    <mxGeometry y="20" width="250" height="17" as="geometry"/>
                </mxCell>
                <mxCell id="601" value="注文日" style="shape=partialRectangle;html=1;whiteSpace=wrap;connectable=0;overflow=hidden;fillColor=none;top=0;left=0;bottom=0;right=0;pointerEvents=1;fontSize=9;" parent="600" vertex="1">
                    <mxGeometry width="30" height="17" as="geometry">
                        <mxRectangle width="30" height="17" as="alternateBounds"/>
                    </mxGeometry>
                </mxCell>
                <mxCell id="602" value="注文品" style="shape=partialRectangle;html=1;whiteSpace=wrap;connectable=0;overflow=hidden;fillColor=none;top=0;left=0;bottom=0;right=0;pointerEvents=1;fontSize=9;" parent="600" vertex="1">
                    <mxGeometry x="30" width="130" height="17" as="geometry">
                        <mxRectangle width="130" height="17" as="alternateBounds"/>
                    </mxGeometry>
                </mxCell>
                <mxCell id="603" value="" style="shape=partialRectangle;html=1;whiteSpace=wrap;connectable=0;overflow=hidden;fillColor=none;top=0;left=0;bottom=0;right=0;pointerEvents=1;fontSize=9;" parent="600" vertex="1">
                    <mxGeometry x="160" width="60" height="17" as="geometry">
                        <mxRectangle width="60" height="17" as="alternateBounds"/>
                    </mxGeometry>
                </mxCell>
                <mxCell id="604" value="詳細" style="shape=partialRectangle;html=1;whiteSpace=wrap;connectable=0;overflow=hidden;fillColor=none;top=0;left=0;bottom=0;right=0;pointerEvents=1;fontSize=9;" parent="600" vertex="1">
                    <mxGeometry x="220" width="30" height="17" as="geometry">
                        <mxRectangle width="30" height="17" as="alternateBounds"/>
                    </mxGeometry>
                </mxCell>
                <mxCell id="606" value="" style="shape=partialRectangle;collapsible=0;dropTarget=0;pointerEvents=0;fillColor=none;top=0;left=0;bottom=0;right=0;points=[[0,0.5],[1,0.5]];portConstraint=eastwest;fontSize=9;" parent="599" vertex="1">
                    <mxGeometry y="37" width="250" height="15" as="geometry"/>
                </mxCell>
                <mxCell id="607" value="6/10" style="shape=partialRectangle;html=1;whiteSpace=wrap;connectable=0;overflow=hidden;fillColor=none;top=0;left=0;bottom=0;right=0;pointerEvents=1;fontSize=9;" parent="606" vertex="1">
                    <mxGeometry width="30" height="15" as="geometry">
                        <mxRectangle width="30" height="15" as="alternateBounds"/>
                    </mxGeometry>
                </mxCell>
                <mxCell id="608" value="商品A×２、商品B×３" style="shape=partialRectangle;html=1;whiteSpace=wrap;connectable=0;overflow=hidden;fillColor=none;top=0;left=0;bottom=0;right=0;pointerEvents=1;fontSize=9;" parent="606" vertex="1">
                    <mxGeometry x="30" width="130" height="15" as="geometry">
                        <mxRectangle width="130" height="15" as="alternateBounds"/>
                    </mxGeometry>
                </mxCell>
                <mxCell id="609" value="" style="shape=partialRectangle;html=1;whiteSpace=wrap;connectable=0;overflow=hidden;fillColor=none;top=0;left=0;bottom=0;right=0;pointerEvents=1;fontSize=9;" parent="606" vertex="1">
                    <mxGeometry x="160" width="60" height="15" as="geometry">
                        <mxRectangle width="60" height="15" as="alternateBounds"/>
                    </mxGeometry>
                </mxCell>
                <mxCell id="610" value="詳細" style="shape=partialRectangle;html=1;whiteSpace=wrap;connectable=0;overflow=hidden;fillColor=none;top=0;left=0;bottom=0;right=0;pointerEvents=1;fontSize=9;" parent="606" vertex="1">
                    <mxGeometry x="220" width="30" height="15" as="geometry">
                        <mxRectangle width="30" height="15" as="alternateBounds"/>
                    </mxGeometry>
                </mxCell>
                <mxCell id="612" value="" style="shape=partialRectangle;collapsible=0;dropTarget=0;pointerEvents=0;fillColor=none;top=0;left=0;bottom=0;right=0;points=[[0,0.5],[1,0.5]];portConstraint=eastwest;fontSize=9;" parent="599" vertex="1">
                    <mxGeometry y="52" width="250" height="17" as="geometry"/>
                </mxCell>
                <mxCell id="613" value="6/12" style="shape=partialRectangle;html=1;whiteSpace=wrap;connectable=0;overflow=hidden;fillColor=none;top=0;left=0;bottom=0;right=0;pointerEvents=1;fontSize=9;" parent="612" vertex="1">
                    <mxGeometry width="30" height="17" as="geometry">
                        <mxRectangle width="30" height="17" as="alternateBounds"/>
                    </mxGeometry>
                </mxCell>
                <mxCell id="614" value="" style="shape=partialRectangle;html=1;whiteSpace=wrap;connectable=0;overflow=hidden;fillColor=none;top=0;left=0;bottom=0;right=0;pointerEvents=1;fontSize=9;" parent="612" vertex="1">
                    <mxGeometry x="30" width="130" height="17" as="geometry">
                        <mxRectangle width="130" height="17" as="alternateBounds"/>
                    </mxGeometry>
                </mxCell>
                <mxCell id="615" value="" style="shape=partialRectangle;html=1;whiteSpace=wrap;connectable=0;overflow=hidden;fillColor=none;top=0;left=0;bottom=0;right=0;pointerEvents=1;fontSize=9;" parent="612" vertex="1">
                    <mxGeometry x="160" width="60" height="17" as="geometry">
                        <mxRectangle width="60" height="17" as="alternateBounds"/>
                    </mxGeometry>
                </mxCell>
                <mxCell id="616" value="詳細" style="shape=partialRectangle;html=1;whiteSpace=wrap;connectable=0;overflow=hidden;fillColor=none;top=0;left=0;bottom=0;right=0;pointerEvents=1;fontSize=9;" parent="612" vertex="1">
                    <mxGeometry x="220" width="30" height="17" as="geometry">
                        <mxRectangle width="30" height="17" as="alternateBounds"/>
                    </mxGeometry>
                </mxCell>
                <mxCell id="618" value="" style="shape=partialRectangle;collapsible=0;dropTarget=0;pointerEvents=0;fillColor=none;top=0;left=0;bottom=0;right=0;points=[[0,0.5],[1,0.5]];portConstraint=eastwest;fontSize=9;" parent="599" vertex="1">
                    <mxGeometry y="69" width="250" height="15" as="geometry"/>
                </mxCell>
                <mxCell id="619" value="6/13" style="shape=partialRectangle;html=1;whiteSpace=wrap;connectable=0;overflow=hidden;fillColor=none;top=0;left=0;bottom=0;right=0;pointerEvents=1;fontSize=9;" parent="618" vertex="1">
                    <mxGeometry width="30" height="15" as="geometry">
                        <mxRectangle width="30" height="15" as="alternateBounds"/>
                    </mxGeometry>
                </mxCell>
                <mxCell id="620" value="" style="shape=partialRectangle;html=1;whiteSpace=wrap;connectable=0;overflow=hidden;fillColor=none;top=0;left=0;bottom=0;right=0;pointerEvents=1;fontSize=9;" parent="618" vertex="1">
                    <mxGeometry x="30" width="130" height="15" as="geometry">
                        <mxRectangle width="130" height="15" as="alternateBounds"/>
                    </mxGeometry>
                </mxCell>
                <mxCell id="621" value="" style="shape=partialRectangle;html=1;whiteSpace=wrap;connectable=0;overflow=hidden;fillColor=none;top=0;left=0;bottom=0;right=0;pointerEvents=1;fontSize=9;" parent="618" vertex="1">
                    <mxGeometry x="160" width="60" height="15" as="geometry">
                        <mxRectangle width="60" height="15" as="alternateBounds"/>
                    </mxGeometry>
                </mxCell>
                <mxCell id="622" value="詳細" style="shape=partialRectangle;html=1;whiteSpace=wrap;connectable=0;overflow=hidden;fillColor=none;top=0;left=0;bottom=0;right=0;pointerEvents=1;fontSize=9;" parent="618" vertex="1">
                    <mxGeometry x="220" width="30" height="15" as="geometry">
                        <mxRectangle width="30" height="15" as="alternateBounds"/>
                    </mxGeometry>
                </mxCell>
                <mxCell id="633" value="" style="whiteSpace=wrap;html=1;aspect=fixed;fontSize=26;" parent="1" vertex="1">
                    <mxGeometry x="2330" y="525" width="280" height="280" as="geometry"/>
                </mxCell>
                <mxCell id="634" value="&lt;font style=&quot;font-size: 26px&quot;&gt;商品編集画面&lt;/font&gt;" style="text;html=1;resizable=0;autosize=1;align=center;verticalAlign=middle;points=[];fillColor=none;strokeColor=none;rounded=0;" parent="1" vertex="1">
                    <mxGeometry x="2380" y="495" width="170" height="20" as="geometry"/>
                </mxCell>
                <mxCell id="635" value="" style="group" parent="1" vertex="1" connectable="0">
                    <mxGeometry x="2330" y="525" width="280" height="40" as="geometry"/>
                </mxCell>
                <mxCell id="636" value="" style="rounded=0;whiteSpace=wrap;html=1;fontSize=26;" parent="635" vertex="1">
                    <mxGeometry width="280" height="40" as="geometry"/>
                </mxCell>
                <mxCell id="637" value="" style="group" parent="635" vertex="1" connectable="0">
                    <mxGeometry width="280" height="40" as="geometry"/>
                </mxCell>
                <mxCell id="638" value="" style="rounded=0;whiteSpace=wrap;html=1;fontSize=26;" parent="637" vertex="1">
                    <mxGeometry width="280" height="40" as="geometry"/>
                </mxCell>
                <mxCell id="639" value="&lt;div&gt;&lt;span style=&quot;font-size: x-small&quot;&gt;logo&lt;/span&gt;&lt;/div&gt;" style="ellipse;whiteSpace=wrap;html=1;fontSize=40;align=center;" parent="637" vertex="1">
                    <mxGeometry width="50" height="40" as="geometry"/>
                </mxCell>
                <mxCell id="640" value="&lt;font style=&quot;font-size: 7px&quot;&gt;発注履歴&lt;/font&gt;" style="rounded=1;whiteSpace=wrap;html=1;fontSize=7;" parent="637" vertex="1">
                    <mxGeometry x="150" y="10" width="40" height="20" as="geometry"/>
                </mxCell>
                <mxCell id="641" value="&lt;font style=&quot;font-size: 7px;&quot;&gt;管理&lt;/font&gt;" style="rounded=1;whiteSpace=wrap;html=1;fontSize=7;" parent="637" vertex="1">
                    <mxGeometry x="190" y="10" width="40" height="20" as="geometry"/>
                </mxCell>
                <mxCell id="642" value="&lt;font style=&quot;font-size: 7px;&quot;&gt;ログアウト&lt;/font&gt;" style="rounded=1;whiteSpace=wrap;html=1;fontSize=7;" parent="637" vertex="1">
                    <mxGeometry x="230" y="10" width="40" height="20" as="geometry"/>
                </mxCell>
                <mxCell id="643" value="&lt;span style=&quot;font-size: 7px;&quot;&gt;TOP&lt;/span&gt;" style="rounded=1;whiteSpace=wrap;html=1;fontSize=7;" parent="637" vertex="1">
                    <mxGeometry x="110" y="10" width="40" height="20" as="geometry"/>
                </mxCell>
                <mxCell id="644" value="&lt;font style=&quot;font-size: 10px&quot;&gt;© 2022 All Rights Reserved.&lt;/font&gt;" style="rounded=0;whiteSpace=wrap;html=1;fontSize=26;align=center;" parent="1" vertex="1">
                    <mxGeometry x="2330" y="785" width="280" height="20" as="geometry"/>
                </mxCell>
                <mxCell id="645" value="注文日：6月10日" style="text;html=1;resizable=0;autosize=1;align=center;verticalAlign=middle;points=[];fillColor=none;strokeColor=none;rounded=0;fontSize=9;" parent="1" vertex="1">
                    <mxGeometry x="2067.5" y="587.5" width="80" height="20" as="geometry"/>
                </mxCell>
                <mxCell id="646" value="商品：商品A×２、商品B×３" style="text;html=1;resizable=0;autosize=1;align=center;verticalAlign=middle;points=[];fillColor=none;strokeColor=none;rounded=0;fontSize=9;" parent="1" vertex="1">
                    <mxGeometry x="2042.5" y="607.5" width="130" height="20" as="geometry"/>
                </mxCell>
                <mxCell id="647" value="合計：9,800円" style="text;html=1;resizable=0;autosize=1;align=center;verticalAlign=middle;points=[];fillColor=none;strokeColor=none;rounded=0;fontSize=9;" parent="1" vertex="1">
                    <mxGeometry x="2072.5" y="627.5" width="70" height="20" as="geometry"/>
                </mxCell>
                <mxCell id="648" value="配送先：東京都千代田区（千代田区倉庫）" style="text;html=1;resizable=0;autosize=1;align=center;verticalAlign=middle;points=[];fillColor=none;strokeColor=none;rounded=0;fontSize=9;" parent="1" vertex="1">
                    <mxGeometry x="2012.5" y="644.5" width="190" height="20" as="geometry"/>
                </mxCell>
                <mxCell id="650" value="戻る" style="ellipse;whiteSpace=wrap;html=1;aspect=fixed;fontSize=7;" parent="1" vertex="1">
                    <mxGeometry x="2092.5" y="703" width="30" height="30" as="geometry"/>
                </mxCell>
                <mxCell id="651" value="発注元" style="shape=partialRectangle;html=1;whiteSpace=wrap;connectable=0;overflow=hidden;fillColor=none;top=0;left=0;bottom=0;right=0;pointerEvents=1;fontSize=9;" parent="1" vertex="1">
                    <mxGeometry x="2142.5" y="210" width="60" height="16" as="geometry">
                        <mxRectangle width="60" height="16" as="alternateBounds"/>
                    </mxGeometry>
                </mxCell>
                <mxCell id="652" value="○○社" style="shape=partialRectangle;html=1;whiteSpace=wrap;connectable=0;overflow=hidden;fillColor=none;top=0;left=0;bottom=0;right=0;pointerEvents=1;fontSize=9;" parent="1" vertex="1">
                    <mxGeometry x="2140" y="227.5" width="60" height="16" as="geometry">
                        <mxRectangle width="60" height="16" as="alternateBounds"/>
                    </mxGeometry>
                </mxCell>
                <mxCell id="653" value="△△社" style="shape=partialRectangle;html=1;whiteSpace=wrap;connectable=0;overflow=hidden;fillColor=none;top=0;left=0;bottom=0;right=0;pointerEvents=1;fontSize=9;" parent="1" vertex="1">
                    <mxGeometry x="2140" y="243.5" width="60" height="16" as="geometry">
                        <mxRectangle width="60" height="16" as="alternateBounds"/>
                    </mxGeometry>
                </mxCell>
                <mxCell id="654" value="××社" style="shape=partialRectangle;html=1;whiteSpace=wrap;connectable=0;overflow=hidden;fillColor=none;top=0;left=0;bottom=0;right=0;pointerEvents=1;fontSize=9;" parent="1" vertex="1">
                    <mxGeometry x="2140" y="258" width="60" height="16" as="geometry">
                        <mxRectangle width="60" height="16" as="alternateBounds"/>
                    </mxGeometry>
                </mxCell>
                <mxCell id="656" value="" style="rounded=1;whiteSpace=wrap;html=1;" parent="1" vertex="1">
                    <mxGeometry x="2051.25" y="661.75" width="112.5" height="27.5" as="geometry"/>
                </mxCell>
                <mxCell id="649" value="処理状況：発送済" style="text;html=1;resizable=0;autosize=1;align=center;verticalAlign=middle;points=[];fillColor=none;strokeColor=none;rounded=0;fontSize=9;" parent="1" vertex="1">
                    <mxGeometry x="2060" y="665.5" width="90" height="20" as="geometry"/>
                </mxCell>
                <mxCell id="657" value="商品リスト" style="shape=table;startSize=30;container=1;collapsible=0;childLayout=tableLayout;fontStyle=1;align=center;pointerEvents=1;" parent="1" vertex="1">
                    <mxGeometry x="2338" y="150" width="272" height="150" as="geometry"/>
                </mxCell>
                <mxCell id="670" style="shape=partialRectangle;html=1;whiteSpace=wrap;collapsible=0;dropTarget=0;pointerEvents=0;fillColor=none;top=0;left=0;bottom=0;right=0;points=[[0,0.5],[1,0.5]];portConstraint=eastwest;" parent="657" vertex="1">
                    <mxGeometry y="30" width="272" height="30" as="geometry"/>
                </mxCell>
                <mxCell id="671" value="商品番号" style="shape=partialRectangle;html=1;whiteSpace=wrap;connectable=0;fillColor=none;top=0;left=0;bottom=0;right=0;overflow=hidden;pointerEvents=1;" parent="670" vertex="1">
                    <mxGeometry width="35" height="30" as="geometry">
                        <mxRectangle width="35" height="30" as="alternateBounds"/>
                    </mxGeometry>
                </mxCell>
                <mxCell id="672" value="名前" style="shape=partialRectangle;html=1;whiteSpace=wrap;connectable=0;fillColor=none;top=0;left=0;bottom=0;right=0;overflow=hidden;pointerEvents=1;" parent="670" vertex="1">
                    <mxGeometry x="35" width="56" height="30" as="geometry">
                        <mxRectangle width="56" height="30" as="alternateBounds"/>
                    </mxGeometry>
                </mxCell>
                <mxCell id="673" value="値段" style="shape=partialRectangle;html=1;whiteSpace=wrap;connectable=0;fillColor=none;top=0;left=0;bottom=0;right=0;overflow=hidden;pointerEvents=1;" parent="670" vertex="1">
                    <mxGeometry x="91" width="61" height="30" as="geometry">
                        <mxRectangle width="61" height="30" as="alternateBounds"/>
                    </mxGeometry>
                </mxCell>
                <mxCell id="726" value="在庫数" style="shape=partialRectangle;html=1;whiteSpace=wrap;connectable=0;fillColor=none;top=0;left=0;bottom=0;right=0;overflow=hidden;pointerEvents=1;" parent="670" vertex="1">
                    <mxGeometry x="152" width="50" height="30" as="geometry">
                        <mxRectangle width="50" height="30" as="alternateBounds"/>
                    </mxGeometry>
                </mxCell>
                <mxCell id="722" value="編集" style="shape=partialRectangle;html=1;whiteSpace=wrap;connectable=0;fillColor=none;top=0;left=0;bottom=0;right=0;overflow=hidden;pointerEvents=1;" parent="670" vertex="1">
                    <mxGeometry x="202" width="40" height="30" as="geometry">
                        <mxRectangle width="40" height="30" as="alternateBounds"/>
                    </mxGeometry>
                </mxCell>
                <mxCell id="718" value="削除" style="shape=partialRectangle;html=1;whiteSpace=wrap;connectable=0;fillColor=none;top=0;left=0;bottom=0;right=0;overflow=hidden;pointerEvents=1;" parent="670" vertex="1">
                    <mxGeometry x="242" width="30" height="30" as="geometry">
                        <mxRectangle width="30" height="30" as="alternateBounds"/>
                    </mxGeometry>
                </mxCell>
                <mxCell id="658" value="" style="shape=partialRectangle;html=1;whiteSpace=wrap;collapsible=0;dropTarget=0;pointerEvents=0;fillColor=none;top=0;left=0;bottom=0;right=0;points=[[0,0.5],[1,0.5]];portConstraint=eastwest;" parent="657" vertex="1">
                    <mxGeometry y="60" width="272" height="30" as="geometry"/>
                </mxCell>
                <mxCell id="659" value="1" style="shape=partialRectangle;html=1;whiteSpace=wrap;connectable=0;fillColor=none;top=0;left=0;bottom=0;right=0;overflow=hidden;pointerEvents=1;" parent="658" vertex="1">
                    <mxGeometry width="35" height="30" as="geometry">
                        <mxRectangle width="35" height="30" as="alternateBounds"/>
                    </mxGeometry>
                </mxCell>
                <mxCell id="660" value="A" style="shape=partialRectangle;html=1;whiteSpace=wrap;connectable=0;fillColor=none;top=0;left=0;bottom=0;right=0;overflow=hidden;pointerEvents=1;" parent="658" vertex="1">
                    <mxGeometry x="35" width="56" height="30" as="geometry">
                        <mxRectangle width="56" height="30" as="alternateBounds"/>
                    </mxGeometry>
                </mxCell>
                <mxCell id="674" value="1,200" style="shape=partialRectangle;html=1;whiteSpace=wrap;connectable=0;fillColor=none;top=0;left=0;bottom=0;right=0;overflow=hidden;pointerEvents=1;" parent="658" vertex="1">
                    <mxGeometry x="91" width="61" height="30" as="geometry">
                        <mxRectangle width="61" height="30" as="alternateBounds"/>
                    </mxGeometry>
                </mxCell>
                <mxCell id="727" value="23" style="shape=partialRectangle;html=1;whiteSpace=wrap;connectable=0;fillColor=none;top=0;left=0;bottom=0;right=0;overflow=hidden;pointerEvents=1;" parent="658" vertex="1">
                    <mxGeometry x="152" width="50" height="30" as="geometry">
                        <mxRectangle width="50" height="30" as="alternateBounds"/>
                    </mxGeometry>
                </mxCell>
                <mxCell id="723" value="編集" style="shape=partialRectangle;html=1;whiteSpace=wrap;connectable=0;fillColor=none;top=0;left=0;bottom=0;right=0;overflow=hidden;pointerEvents=1;" parent="658" vertex="1">
                    <mxGeometry x="202" width="40" height="30" as="geometry">
                        <mxRectangle width="40" height="30" as="alternateBounds"/>
                    </mxGeometry>
                </mxCell>
                <mxCell id="719" value="削除" style="shape=partialRectangle;html=1;whiteSpace=wrap;connectable=0;fillColor=none;top=0;left=0;bottom=0;right=0;overflow=hidden;pointerEvents=1;" parent="658" vertex="1">
                    <mxGeometry x="242" width="30" height="30" as="geometry">
                        <mxRectangle width="30" height="30" as="alternateBounds"/>
                    </mxGeometry>
                </mxCell>
                <mxCell id="662" value="" style="shape=partialRectangle;html=1;whiteSpace=wrap;collapsible=0;dropTarget=0;pointerEvents=0;fillColor=none;top=0;left=0;bottom=0;right=0;points=[[0,0.5],[1,0.5]];portConstraint=eastwest;" parent="657" vertex="1">
                    <mxGeometry y="90" width="272" height="30" as="geometry"/>
                </mxCell>
                <mxCell id="663" value="2" style="shape=partialRectangle;html=1;whiteSpace=wrap;connectable=0;fillColor=none;top=0;left=0;bottom=0;right=0;overflow=hidden;pointerEvents=1;" parent="662" vertex="1">
                    <mxGeometry width="35" height="30" as="geometry">
                        <mxRectangle width="35" height="30" as="alternateBounds"/>
                    </mxGeometry>
                </mxCell>
                <mxCell id="664" value="B" style="shape=partialRectangle;html=1;whiteSpace=wrap;connectable=0;fillColor=none;top=0;left=0;bottom=0;right=0;overflow=hidden;pointerEvents=1;" parent="662" vertex="1">
                    <mxGeometry x="35" width="56" height="30" as="geometry">
                        <mxRectangle width="56" height="30" as="alternateBounds"/>
                    </mxGeometry>
                </mxCell>
                <mxCell id="675" value="750" style="shape=partialRectangle;html=1;whiteSpace=wrap;connectable=0;fillColor=none;top=0;left=0;bottom=0;right=0;overflow=hidden;pointerEvents=1;" parent="662" vertex="1">
                    <mxGeometry x="91" width="61" height="30" as="geometry">
                        <mxRectangle width="61" height="30" as="alternateBounds"/>
                    </mxGeometry>
                </mxCell>
                <mxCell id="728" value="97" style="shape=partialRectangle;html=1;whiteSpace=wrap;connectable=0;fillColor=none;top=0;left=0;bottom=0;right=0;overflow=hidden;pointerEvents=1;" parent="662" vertex="1">
                    <mxGeometry x="152" width="50" height="30" as="geometry">
                        <mxRectangle width="50" height="30" as="alternateBounds"/>
                    </mxGeometry>
                </mxCell>
                <mxCell id="724" value="編集" style="shape=partialRectangle;html=1;whiteSpace=wrap;connectable=0;fillColor=none;top=0;left=0;bottom=0;right=0;overflow=hidden;pointerEvents=1;" parent="662" vertex="1">
                    <mxGeometry x="202" width="40" height="30" as="geometry">
                        <mxRectangle width="40" height="30" as="alternateBounds"/>
                    </mxGeometry>
                </mxCell>
                <mxCell id="720" value="削除" style="shape=partialRectangle;html=1;whiteSpace=wrap;connectable=0;fillColor=none;top=0;left=0;bottom=0;right=0;overflow=hidden;pointerEvents=1;" parent="662" vertex="1">
                    <mxGeometry x="242" width="30" height="30" as="geometry">
                        <mxRectangle width="30" height="30" as="alternateBounds"/>
                    </mxGeometry>
                </mxCell>
                <mxCell id="666" value="" style="shape=partialRectangle;html=1;whiteSpace=wrap;collapsible=0;dropTarget=0;pointerEvents=0;fillColor=none;top=0;left=0;bottom=0;right=0;points=[[0,0.5],[1,0.5]];portConstraint=eastwest;" parent="657" vertex="1">
                    <mxGeometry y="120" width="272" height="30" as="geometry"/>
                </mxCell>
                <mxCell id="667" value="3" style="shape=partialRectangle;html=1;whiteSpace=wrap;connectable=0;fillColor=none;top=0;left=0;bottom=0;right=0;overflow=hidden;pointerEvents=1;" parent="666" vertex="1">
                    <mxGeometry width="35" height="30" as="geometry">
                        <mxRectangle width="35" height="30" as="alternateBounds"/>
                    </mxGeometry>
                </mxCell>
                <mxCell id="668" value="C" style="shape=partialRectangle;html=1;whiteSpace=wrap;connectable=0;fillColor=none;top=0;left=0;bottom=0;right=0;overflow=hidden;pointerEvents=1;" parent="666" vertex="1">
                    <mxGeometry x="35" width="56" height="30" as="geometry">
                        <mxRectangle width="56" height="30" as="alternateBounds"/>
                    </mxGeometry>
                </mxCell>
                <mxCell id="676" value="2,300" style="shape=partialRectangle;html=1;whiteSpace=wrap;connectable=0;fillColor=none;top=0;left=0;bottom=0;right=0;overflow=hidden;pointerEvents=1;" parent="666" vertex="1">
                    <mxGeometry x="91" width="61" height="30" as="geometry">
                        <mxRectangle width="61" height="30" as="alternateBounds"/>
                    </mxGeometry>
                </mxCell>
                <mxCell id="729" value="12" style="shape=partialRectangle;html=1;whiteSpace=wrap;connectable=0;fillColor=none;top=0;left=0;bottom=0;right=0;overflow=hidden;pointerEvents=1;" parent="666" vertex="1">
                    <mxGeometry x="152" width="50" height="30" as="geometry">
                        <mxRectangle width="50" height="30" as="alternateBounds"/>
                    </mxGeometry>
                </mxCell>
                <mxCell id="725" value="編集" style="shape=partialRectangle;html=1;whiteSpace=wrap;connectable=0;fillColor=none;top=0;left=0;bottom=0;right=0;overflow=hidden;pointerEvents=1;" parent="666" vertex="1">
                    <mxGeometry x="202" width="40" height="30" as="geometry">
                        <mxRectangle width="40" height="30" as="alternateBounds"/>
                    </mxGeometry>
                </mxCell>
                <mxCell id="721" value="削除" style="shape=partialRectangle;html=1;whiteSpace=wrap;connectable=0;fillColor=none;top=0;left=0;bottom=0;right=0;overflow=hidden;pointerEvents=1;" parent="666" vertex="1">
                    <mxGeometry x="242" width="30" height="30" as="geometry">
                        <mxRectangle width="30" height="30" as="alternateBounds"/>
                    </mxGeometry>
                </mxCell>
                <mxCell id="681" value="新規登録" style="ellipse;whiteSpace=wrap;html=1;" parent="1" vertex="1">
                    <mxGeometry x="2360" y="95" width="70" height="44" as="geometry"/>
                </mxCell>
                <mxCell id="682" value="CSV登録" style="rounded=1;whiteSpace=wrap;html=1;" parent="1" vertex="1">
                    <mxGeometry x="2440" y="103.5" width="70" height="31" as="geometry"/>
                </mxCell>
                <mxCell id="683" value="" style="whiteSpace=wrap;html=1;aspect=fixed;fontSize=26;" parent="1" vertex="1">
                    <mxGeometry x="2700" y="526" width="280" height="280" as="geometry"/>
                </mxCell>
                <mxCell id="684" value="&lt;font style=&quot;font-size: 26px&quot;&gt;商品登録画面&lt;/font&gt;" style="text;html=1;resizable=0;autosize=1;align=center;verticalAlign=middle;points=[];fillColor=none;strokeColor=none;rounded=0;" parent="1" vertex="1">
                    <mxGeometry x="2740" y="488" width="170" height="20" as="geometry"/>
                </mxCell>
                <mxCell id="694" value="&lt;font style=&quot;font-size: 10px&quot;&gt;© 2022 All Rights Reserved.&lt;/font&gt;" style="rounded=0;whiteSpace=wrap;html=1;fontSize=26;align=center;" parent="1" vertex="1">
                    <mxGeometry x="2700" y="786" width="280" height="20" as="geometry"/>
                </mxCell>
                <mxCell id="695" value="" style="group" parent="1" vertex="1" connectable="0">
                    <mxGeometry x="2700" y="527" width="280" height="40" as="geometry"/>
                </mxCell>
                <mxCell id="696" value="" style="rounded=0;whiteSpace=wrap;html=1;fontSize=26;" parent="695" vertex="1">
                    <mxGeometry width="280" height="40" as="geometry"/>
                </mxCell>
                <mxCell id="697" value="" style="group" parent="695" vertex="1" connectable="0">
                    <mxGeometry width="280" height="40" as="geometry"/>
                </mxCell>
                <mxCell id="698" value="" style="rounded=0;whiteSpace=wrap;html=1;fontSize=26;" parent="697" vertex="1">
                    <mxGeometry width="280" height="40" as="geometry"/>
                </mxCell>
                <mxCell id="699" value="&lt;div&gt;&lt;span style=&quot;font-size: x-small&quot;&gt;logo&lt;/span&gt;&lt;/div&gt;" style="ellipse;whiteSpace=wrap;html=1;fontSize=40;align=center;" parent="697" vertex="1">
                    <mxGeometry width="50" height="40" as="geometry"/>
                </mxCell>
                <mxCell id="700" value="&lt;font style=&quot;font-size: 7px&quot;&gt;発注履歴&lt;/font&gt;" style="rounded=1;whiteSpace=wrap;html=1;fontSize=7;" parent="697" vertex="1">
                    <mxGeometry x="150" y="10" width="40" height="20" as="geometry"/>
                </mxCell>
                <mxCell id="701" value="&lt;font style=&quot;font-size: 7px;&quot;&gt;管理&lt;/font&gt;" style="rounded=1;whiteSpace=wrap;html=1;fontSize=7;" parent="697" vertex="1">
                    <mxGeometry x="190" y="10" width="40" height="20" as="geometry"/>
                </mxCell>
                <mxCell id="702" value="&lt;font style=&quot;font-size: 7px;&quot;&gt;ログアウト&lt;/font&gt;" style="rounded=1;whiteSpace=wrap;html=1;fontSize=7;" parent="697" vertex="1">
                    <mxGeometry x="230" y="10" width="40" height="20" as="geometry"/>
                </mxCell>
                <mxCell id="703" value="&lt;span style=&quot;font-size: 7px;&quot;&gt;TOP&lt;/span&gt;" style="rounded=1;whiteSpace=wrap;html=1;fontSize=7;" parent="697" vertex="1">
                    <mxGeometry x="110" y="10" width="40" height="20" as="geometry"/>
                </mxCell>
                <mxCell id="704" value="商品名" style="rounded=1;whiteSpace=wrap;html=1;" parent="1" vertex="1">
                    <mxGeometry x="2743" y="580" width="180" height="20" as="geometry"/>
                </mxCell>
                <mxCell id="705" value="商品説明" style="rounded=1;whiteSpace=wrap;html=1;" parent="1" vertex="1">
                    <mxGeometry x="2743" y="610" width="180" height="20" as="geometry"/>
                </mxCell>
                <mxCell id="706" value="金額" style="rounded=1;whiteSpace=wrap;html=1;" parent="1" vertex="1">
                    <mxGeometry x="2743" y="641.75" width="180" height="20" as="geometry"/>
                </mxCell>
                <mxCell id="707" value="画像アップロード" style="rounded=1;whiteSpace=wrap;html=1;" parent="1" vertex="1">
                    <mxGeometry x="2743" y="673" width="180" height="20" as="geometry"/>
                </mxCell>
                <mxCell id="708" value="在庫数" style="rounded=1;whiteSpace=wrap;html=1;" parent="1" vertex="1">
                    <mxGeometry x="2743" y="703" width="180" height="20" as="geometry"/>
                </mxCell>
                <mxCell id="709" value="戻る" style="ellipse;whiteSpace=wrap;html=1;aspect=fixed;fontSize=7;" parent="1" vertex="1">
                    <mxGeometry x="2860" y="735" width="30" height="30" as="geometry"/>
                </mxCell>
                <mxCell id="710" value="登録" style="ellipse;whiteSpace=wrap;html=1;aspect=fixed;fontSize=7;" parent="1" vertex="1">
                    <mxGeometry x="2790" y="735" width="30" height="30" as="geometry"/>
                </mxCell>
                <mxCell id="711" value="商品名" style="rounded=1;whiteSpace=wrap;html=1;" parent="1" vertex="1">
                    <mxGeometry x="2375" y="577.5" width="180" height="20" as="geometry"/>
                </mxCell>
                <mxCell id="712" value="商品説明" style="rounded=1;whiteSpace=wrap;html=1;" parent="1" vertex="1">
                    <mxGeometry x="2375" y="607.5" width="180" height="20" as="geometry"/>
                </mxCell>
                <mxCell id="713" value="金額" style="rounded=1;whiteSpace=wrap;html=1;" parent="1" vertex="1">
                    <mxGeometry x="2375" y="639.25" width="180" height="20" as="geometry"/>
                </mxCell>
                <mxCell id="714" value="画像アップロード" style="rounded=1;whiteSpace=wrap;html=1;" parent="1" vertex="1">
                    <mxGeometry x="2375" y="670.5" width="180" height="20" as="geometry"/>
                </mxCell>
                <mxCell id="715" value="在庫数" style="rounded=1;whiteSpace=wrap;html=1;" parent="1" vertex="1">
                    <mxGeometry x="2375" y="700.5" width="180" height="20" as="geometry"/>
                </mxCell>
                <mxCell id="716" value="戻る" style="ellipse;whiteSpace=wrap;html=1;aspect=fixed;fontSize=7;" parent="1" vertex="1">
                    <mxGeometry x="2492" y="732.5" width="30" height="30" as="geometry"/>
                </mxCell>
                <mxCell id="717" value="更新" style="ellipse;whiteSpace=wrap;html=1;aspect=fixed;fontSize=7;" parent="1" vertex="1">
                    <mxGeometry x="2422" y="732.5" width="30" height="30" as="geometry"/>
                </mxCell>
                <mxCell id="731" value="戻る" style="ellipse;whiteSpace=wrap;html=1;aspect=fixed;fontSize=7;" parent="1" vertex="1">
                    <mxGeometry x="2555" y="102" width="30" height="30" as="geometry"/>
                </mxCell>
                <mxCell id="733" value="&lt;font style=&quot;font-size: 7px&quot;&gt;戻る&lt;br&gt;&lt;/font&gt;" style="ellipse;whiteSpace=wrap;html=1;aspect=fixed;fontSize=4;" parent="1" vertex="1">
                    <mxGeometry x="1325" y="723" width="35" height="35" as="geometry"/>
                </mxCell>
                <mxCell id="734" value="" style="whiteSpace=wrap;html=1;aspect=fixed;fontSize=26;" vertex="1" parent="1">
                    <mxGeometry x="2693" y="45.5" width="280" height="280" as="geometry"/>
                </mxCell>
                <mxCell id="735" value="&lt;font style=&quot;font-size: 26px&quot;&gt;かご確認画面&lt;/font&gt;" style="text;html=1;resizable=0;autosize=1;align=center;verticalAlign=middle;points=[];fillColor=none;strokeColor=none;rounded=0;" vertex="1" parent="1">
                    <mxGeometry x="2733" y="7.5" width="170" height="20" as="geometry"/>
                </mxCell>
                <mxCell id="736" value="&lt;font style=&quot;font-size: 10px&quot;&gt;© 2022 All Rights Reserved.&lt;/font&gt;" style="rounded=0;whiteSpace=wrap;html=1;fontSize=26;align=center;" vertex="1" parent="1">
                    <mxGeometry x="2693" y="305.5" width="280" height="20" as="geometry"/>
                </mxCell>
                <mxCell id="737" value="" style="group" vertex="1" connectable="0" parent="1">
                    <mxGeometry x="2693" y="46.5" width="280" height="40" as="geometry"/>
                </mxCell>
                <mxCell id="738" value="" style="rounded=0;whiteSpace=wrap;html=1;fontSize=26;" vertex="1" parent="737">
                    <mxGeometry width="280" height="40" as="geometry"/>
                </mxCell>
                <mxCell id="739" value="" style="group" vertex="1" connectable="0" parent="737">
                    <mxGeometry width="280" height="40" as="geometry"/>
                </mxCell>
                <mxCell id="740" value="" style="rounded=0;whiteSpace=wrap;html=1;fontSize=26;" vertex="1" parent="739">
                    <mxGeometry width="280" height="40" as="geometry"/>
                </mxCell>
                <mxCell id="741" value="&lt;div&gt;&lt;span style=&quot;font-size: x-small&quot;&gt;logo&lt;/span&gt;&lt;/div&gt;" style="ellipse;whiteSpace=wrap;html=1;fontSize=40;align=center;" vertex="1" parent="739">
                    <mxGeometry width="50" height="40" as="geometry"/>
                </mxCell>
                <mxCell id="742" value="&lt;font style=&quot;font-size: 7px&quot;&gt;発注履歴&lt;/font&gt;" style="rounded=1;whiteSpace=wrap;html=1;fontSize=7;" vertex="1" parent="739">
                    <mxGeometry x="150" y="10" width="40" height="20" as="geometry"/>
                </mxCell>
                <mxCell id="743" value="&lt;font style=&quot;font-size: 7px;&quot;&gt;管理&lt;/font&gt;" style="rounded=1;whiteSpace=wrap;html=1;fontSize=7;" vertex="1" parent="739">
                    <mxGeometry x="190" y="10" width="40" height="20" as="geometry"/>
                </mxCell>
                <mxCell id="744" value="&lt;font style=&quot;font-size: 7px;&quot;&gt;ログアウト&lt;/font&gt;" style="rounded=1;whiteSpace=wrap;html=1;fontSize=7;" vertex="1" parent="739">
                    <mxGeometry x="230" y="10" width="40" height="20" as="geometry"/>
                </mxCell>
                <mxCell id="745" value="&lt;span style=&quot;font-size: 7px;&quot;&gt;TOP&lt;/span&gt;" style="rounded=1;whiteSpace=wrap;html=1;fontSize=7;" vertex="1" parent="739">
                    <mxGeometry x="110" y="10" width="40" height="20" as="geometry"/>
                </mxCell>
                <mxCell id="746" value="" style="whiteSpace=wrap;html=1;aspect=fixed;fontSize=26;" vertex="1" parent="1">
                    <mxGeometry x="3070" y="45.5" width="280" height="280" as="geometry"/>
                </mxCell>
                <mxCell id="747" value="&lt;font style=&quot;font-size: 26px&quot;&gt;配送先確認画面&lt;/font&gt;" style="text;html=1;resizable=0;autosize=1;align=center;verticalAlign=middle;points=[];fillColor=none;strokeColor=none;rounded=0;" vertex="1" parent="1">
                    <mxGeometry x="3095" y="7.5" width="200" height="20" as="geometry"/>
                </mxCell>
                <mxCell id="748" value="&lt;font style=&quot;font-size: 10px&quot;&gt;© 2022 All Rights Reserved.&lt;/font&gt;" style="rounded=0;whiteSpace=wrap;html=1;fontSize=26;align=center;" vertex="1" parent="1">
                    <mxGeometry x="3070" y="305.5" width="280" height="20" as="geometry"/>
                </mxCell>
                <mxCell id="749" value="" style="group" vertex="1" connectable="0" parent="1">
                    <mxGeometry x="3070" y="46.5" width="280" height="40" as="geometry"/>
                </mxCell>
                <mxCell id="750" value="" style="rounded=0;whiteSpace=wrap;html=1;fontSize=26;" vertex="1" parent="749">
                    <mxGeometry width="280" height="40" as="geometry"/>
                </mxCell>
                <mxCell id="751" value="" style="group" vertex="1" connectable="0" parent="749">
                    <mxGeometry width="280" height="40" as="geometry"/>
                </mxCell>
                <mxCell id="752" value="" style="rounded=0;whiteSpace=wrap;html=1;fontSize=26;" vertex="1" parent="751">
                    <mxGeometry width="280" height="40" as="geometry"/>
                </mxCell>
                <mxCell id="753" value="&lt;div&gt;&lt;span style=&quot;font-size: x-small&quot;&gt;logo&lt;/span&gt;&lt;/div&gt;" style="ellipse;whiteSpace=wrap;html=1;fontSize=40;align=center;" vertex="1" parent="751">
                    <mxGeometry width="50" height="40" as="geometry"/>
                </mxCell>
                <mxCell id="754" value="&lt;font style=&quot;font-size: 7px&quot;&gt;発注履歴&lt;/font&gt;" style="rounded=1;whiteSpace=wrap;html=1;fontSize=7;" vertex="1" parent="751">
                    <mxGeometry x="150" y="10" width="40" height="20" as="geometry"/>
                </mxCell>
                <mxCell id="755" value="&lt;font style=&quot;font-size: 7px;&quot;&gt;管理&lt;/font&gt;" style="rounded=1;whiteSpace=wrap;html=1;fontSize=7;" vertex="1" parent="751">
                    <mxGeometry x="190" y="10" width="40" height="20" as="geometry"/>
                </mxCell>
                <mxCell id="756" value="&lt;font style=&quot;font-size: 7px;&quot;&gt;ログアウト&lt;/font&gt;" style="rounded=1;whiteSpace=wrap;html=1;fontSize=7;" vertex="1" parent="751">
                    <mxGeometry x="230" y="10" width="40" height="20" as="geometry"/>
                </mxCell>
                <mxCell id="757" value="&lt;span style=&quot;font-size: 7px;&quot;&gt;TOP&lt;/span&gt;" style="rounded=1;whiteSpace=wrap;html=1;fontSize=7;" vertex="1" parent="751">
                    <mxGeometry x="110" y="10" width="40" height="20" as="geometry"/>
                </mxCell>
                <mxCell id="758" value="" style="whiteSpace=wrap;html=1;aspect=fixed;fontSize=26;" vertex="1" parent="1">
                    <mxGeometry x="3060" y="515" width="280" height="280" as="geometry"/>
                </mxCell>
                <mxCell id="759" value="&lt;font style=&quot;font-size: 26px&quot;&gt;発注確認画面&lt;/font&gt;" style="text;html=1;resizable=0;autosize=1;align=center;verticalAlign=middle;points=[];fillColor=none;strokeColor=none;rounded=0;" vertex="1" parent="1">
                    <mxGeometry x="3100" y="477" width="170" height="20" as="geometry"/>
                </mxCell>
                <mxCell id="760" value="&lt;font style=&quot;font-size: 10px&quot;&gt;© 2022 All Rights Reserved.&lt;/font&gt;" style="rounded=0;whiteSpace=wrap;html=1;fontSize=26;align=center;" vertex="1" parent="1">
                    <mxGeometry x="3060" y="775" width="280" height="20" as="geometry"/>
                </mxCell>
                <mxCell id="761" value="" style="group" vertex="1" connectable="0" parent="1">
                    <mxGeometry x="3060" y="516" width="280" height="40" as="geometry"/>
                </mxCell>
                <mxCell id="762" value="" style="rounded=0;whiteSpace=wrap;html=1;fontSize=26;" vertex="1" parent="761">
                    <mxGeometry width="280" height="40" as="geometry"/>
                </mxCell>
                <mxCell id="763" value="" style="group" vertex="1" connectable="0" parent="761">
                    <mxGeometry width="280" height="40" as="geometry"/>
                </mxCell>
                <mxCell id="764" value="" style="rounded=0;whiteSpace=wrap;html=1;fontSize=26;" vertex="1" parent="763">
                    <mxGeometry width="280" height="40" as="geometry"/>
                </mxCell>
                <mxCell id="765" value="&lt;div&gt;&lt;span style=&quot;font-size: x-small&quot;&gt;logo&lt;/span&gt;&lt;/div&gt;" style="ellipse;whiteSpace=wrap;html=1;fontSize=40;align=center;" vertex="1" parent="763">
                    <mxGeometry width="50" height="40" as="geometry"/>
                </mxCell>
                <mxCell id="766" value="&lt;font style=&quot;font-size: 7px&quot;&gt;発注履歴&lt;/font&gt;" style="rounded=1;whiteSpace=wrap;html=1;fontSize=7;" vertex="1" parent="763">
                    <mxGeometry x="150" y="10" width="40" height="20" as="geometry"/>
                </mxCell>
                <mxCell id="767" value="&lt;font style=&quot;font-size: 7px;&quot;&gt;管理&lt;/font&gt;" style="rounded=1;whiteSpace=wrap;html=1;fontSize=7;" vertex="1" parent="763">
                    <mxGeometry x="190" y="10" width="40" height="20" as="geometry"/>
                </mxCell>
                <mxCell id="768" value="&lt;font style=&quot;font-size: 7px;&quot;&gt;ログアウト&lt;/font&gt;" style="rounded=1;whiteSpace=wrap;html=1;fontSize=7;" vertex="1" parent="763">
                    <mxGeometry x="230" y="10" width="40" height="20" as="geometry"/>
                </mxCell>
                <mxCell id="769" value="&lt;span style=&quot;font-size: 7px;&quot;&gt;TOP&lt;/span&gt;" style="rounded=1;whiteSpace=wrap;html=1;fontSize=7;" vertex="1" parent="763">
                    <mxGeometry x="110" y="10" width="40" height="20" as="geometry"/>
                </mxCell>
                <mxCell id="770" value="カート内アイテム" style="text;html=1;resizable=0;autosize=1;align=center;verticalAlign=middle;points=[];fillColor=none;strokeColor=none;rounded=0;" vertex="1" parent="1">
                    <mxGeometry x="2770" y="117" width="110" height="20" as="geometry"/>
                </mxCell>
                <mxCell id="771" value="1980円&lt;span style=&quot;color: rgba(0 , 0 , 0 , 0) ; font-family: monospace ; font-size: 0px&quot;&gt;%3CmxGraphModel%3E%3Croot%3E%3CmxCell%20id%3D%220%22%2F%3E%3CmxCell%20id%3D%221%22%20parent%3D%220%22%2F%3E%3CmxCell%20id%3D%222%22%20value%3D%22%E3%82%AB%E3%83%BC%E3%83%88%E5%86%85%E3%82%A2%E3%82%A4%E3%83%86%E3%83%A0%22%20style%3D%22text%3Bhtml%3D1%3Bresizable%3D0%3Bautosize%3D1%3Balign%3Dcenter%3BverticalAlign%3Dmiddle%3Bpoints%3D%5B%5D%3BfillColor%3Dnone%3BstrokeColor%3Dnone%3Brounded%3D0%3B%22%20vertex%3D%221%22%20parent%3D%221%22%3E%3CmxGeometry%20x%3D%222770%22%20y%3D%22117%22%20width%3D%22110%22%20height%3D%2220%22%20as%3D%22geometry%22%2F%3E%3C%2FmxCell%3E%3C%2Froot%3E%3C%2FmxGraphModel%3E&lt;/span&gt;" style="text;html=1;resizable=0;autosize=1;align=center;verticalAlign=middle;points=[];fillColor=none;strokeColor=none;rounded=0;" vertex="1" parent="1">
                    <mxGeometry x="2800" y="150" width="50" height="20" as="geometry"/>
                </mxCell>
                <mxCell id="772" value="配送先確認" style="text;html=1;resizable=0;autosize=1;align=center;verticalAlign=middle;points=[];fillColor=none;strokeColor=none;rounded=0;" vertex="1" parent="1">
                    <mxGeometry x="3155" y="118" width="80" height="20" as="geometry"/>
                </mxCell>
                <mxCell id="773" value="購入に進む" style="ellipse;whiteSpace=wrap;html=1;" vertex="1" parent="1">
                    <mxGeometry x="2790" y="220" width="70" height="44" as="geometry"/>
                </mxCell>
                <mxCell id="774" value="・東京都杉並区" style="text;html=1;resizable=0;autosize=1;align=center;verticalAlign=middle;points=[];fillColor=none;strokeColor=none;rounded=0;" vertex="1" parent="1">
                    <mxGeometry x="3145" y="145" width="100" height="20" as="geometry"/>
                </mxCell>
                <mxCell id="775" value="・新しい配送先" style="text;html=1;resizable=0;autosize=1;align=center;verticalAlign=middle;points=[];fillColor=none;strokeColor=none;rounded=0;" vertex="1" parent="1">
                    <mxGeometry x="3110" y="181" width="100" height="20" as="geometry"/>
                </mxCell>
                <mxCell id="776" value="" style="rounded=1;whiteSpace=wrap;html=1;" vertex="1" parent="1">
                    <mxGeometry x="3230" y="181" width="90" height="20" as="geometry"/>
                </mxCell>
                <mxCell id="777" value="確認に進む" style="ellipse;whiteSpace=wrap;html=1;" vertex="1" parent="1">
                    <mxGeometry x="3175" y="225" width="70" height="44" as="geometry"/>
                </mxCell>
                <mxCell id="778" value="確定する" style="ellipse;whiteSpace=wrap;html=1;" vertex="1" parent="1">
                    <mxGeometry x="3165" y="714" width="70" height="44" as="geometry"/>
                </mxCell>
                <mxCell id="779" value="商品A　3個　3000円" style="text;html=1;resizable=0;autosize=1;align=center;verticalAlign=middle;points=[];fillColor=none;strokeColor=none;rounded=0;" vertex="1" parent="1">
                    <mxGeometry x="3120" y="577.5" width="130" height="20" as="geometry"/>
                </mxCell>
                <mxCell id="780" value="配送先：東京都杉並区" style="text;html=1;resizable=0;autosize=1;align=center;verticalAlign=middle;points=[];fillColor=none;strokeColor=none;rounded=0;" vertex="1" parent="1">
                    <mxGeometry x="3115" y="605" width="140" height="20" as="geometry"/>
                </mxCell>
                <mxCell id="781" value="合計金額：3000円" style="text;html=1;resizable=0;autosize=1;align=center;verticalAlign=middle;points=[];fillColor=none;strokeColor=none;rounded=0;" vertex="1" parent="1">
                    <mxGeometry x="3130" y="635" width="110" height="20" as="geometry"/>
                </mxCell>
            </root>
        </mxGraphModel>
    </diagram>
</mxfile>